<?xml version="1.0" standalone="no"?>
<!DOCTYPE svg PUBLIC "-//W3C//DTD SVG 20010904//EN"
 "http://www.w3.org/TR/2001/REC-SVG-20010904/DTD/svg10.dtd">
<svg version="1.0" xmlns="http://www.w3.org/2000/svg"
 width="1640.000000pt" height="925.000000pt" viewBox="0 0 1640.000000 925.000000"
 preserveAspectRatio="xMidYMid meet">

<g transform="translate(0.000000,925.000000) scale(0.100000,-0.100000)"
fill="#000000" stroke="none">
<path d="M0 8090 l0 -1160 49 0 c42 0 54 5 80 31 17 17 31 35 31 40 0 5 11 9
24 9 13 0 29 7 36 15 8 10 31 15 65 15 45 0 57 4 73 25 17 21 28 25 71 25 28
0 51 4 51 9 0 12 59 71 71 71 5 0 9 -7 9 -15 0 -19 21 -19 46 0 10 8 27 15 37
15 10 0 29 12 42 28 20 22 26 25 34 12 8 -12 13 -12 30 4 12 11 21 25 21 31 0
7 7 18 15 25 12 10 15 10 15 -4 0 -24 19 -20 42 9 16 21 28 25 69 25 37 0 49
4 49 15 0 19 76 21 83 3 4 -10 7 -10 18 0 11 10 10 12 -4 12 -11 0 -17 8 -17
25 0 25 1 25 80 25 l80 0 0 30 c0 28 2 30 40 30 22 0 40 5 40 10 0 6 18 10 40
10 29 0 40 4 40 15 0 8 6 15 14 15 7 0 27 7 42 15 16 8 42 15 57 15 16 0 26 4
23 8 -5 9 58 4 684 -54 107 -9 140 -15 140 -25 0 -5 -4 -9 -10 -9 -5 0 -10 -7
-10 -15 0 -9 -10 -32 -23 -53 -13 -20 -37 -62 -54 -92 -16 -30 -35 -64 -41
-75 -6 -11 -27 -60 -46 -110 -20 -49 -49 -124 -66 -164 -17 -41 -49 -143 -71
-225 -22 -83 -45 -155 -50 -161 -7 -7 -16 -3 -29 13 -24 29 -32 28 -24 -3 7
-29 -2 -32 -28 -8 -23 21 -33 11 -17 -16 7 -11 10 -24 5 -28 -4 -4 -12 0 -17
10 -6 9 -18 17 -29 17 -29 0 -50 11 -50 26 0 8 -7 14 -15 14 -18 0 -19 -12 -3
-28 17 -17 0 -28 -22 -14 -25 15 -40 15 -40 0 0 -15 45 -38 72 -38 20 0 24
-15 8 -25 -6 -4 -7 -11 -4 -17 5 -7 -2 -9 -20 -4 -16 4 -33 3 -39 -2 -31 -25
-53 -22 -71 9 -13 22 -21 28 -29 20 -8 -8 -6 -19 6 -41 10 -17 13 -30 8 -30
-6 0 -11 5 -11 11 0 14 -93 2 -98 -12 -8 -20 -66 -9 -94 18 -24 23 -31 25 -50
15 -13 -6 -32 -12 -43 -14 -29 -5 -31 -34 -3 -41 22 -6 54 -44 45 -53 -4 -4
-95 41 -163 82 -31 17 -35 18 -106 1 -106 -25 -399 -23 -478 4 -67 23 -70 23
-70 1 0 -15 -8 -17 -47 -16 -37 2 -49 6 -57 23 -5 12 -14 21 -20 21 -20 0 -39
-18 -32 -29 5 -8 -47 -11 -188 -11 -130 0 -196 -4 -196 -11 0 -7 66 -9 200 -8
111 1 204 -1 207 -5 4 -3 -3 -6 -15 -6 -13 0 -22 -6 -22 -15 0 -8 7 -15 15
-15 8 0 15 -4 15 -10 0 -5 15 -16 33 -24 l32 -14 -28 -1 c-16 -1 -48 -6 -73
-12 -34 -9 -47 -9 -59 1 -11 9 -18 10 -29 1 -11 -9 -19 -4 -40 24 -31 41 -35
42 -64 15 -12 -11 -32 -20 -46 -20 -14 0 -28 -4 -31 -10 -4 -6 -21 -2 -45 10
-22 11 -42 20 -45 20 -3 0 -5 -1422 -5 -3160 l0 -3160 4096 0 c3731 0 4096 1
4090 16 -3 9 -6 20 -6 25 0 6 -6 7 -12 3 -10 -6 -10 -4 -1 6 11 12 15 11 28
-6 8 -10 15 -25 15 -31 0 -10 826 -13 4095 -13 l4095 0 0 25 c0 22 -3 24 -19
15 -27 -14 -1775 -14 -1802 0 -16 9 -19 22 -19 85 0 63 3 76 19 85 27 14 1775
14 1802 0 19 -11 19 28 19 3103 l0 3114 -112 41 c-157 57 -414 126 -468 126
-25 -1 -79 -10 -120 -22 -89 -26 -123 -27 -140 -7 -18 22 -28 19 -105 -26 -59
-35 -98 -47 -251 -82 l-182 -41 -216 78 c-119 43 -219 77 -221 74 -3 -3 -25
-46 -50 -96 -33 -69 -48 -90 -60 -86 -8 3 -15 10 -15 15 0 5 -9 9 -20 9 -11 0
-48 11 -80 25 -76 32 -255 90 -326 106 -51 11 -60 10 -136 -16 -67 -23 -84
-26 -100 -16 -11 7 -77 19 -146 28 l-127 16 -165 -65 c-118 -47 -189 -69 -250
-77 -47 -7 -103 -17 -125 -23 -22 -5 -68 -15 -102 -21 -60 -10 -65 -9 -125 21
-35 17 -132 54 -217 83 -141 48 -157 51 -185 40 -17 -7 -47 -14 -66 -16 -19
-2 -55 -8 -80 -14 -50 -13 -279 -88 -325 -107 -16 -6 -82 -24 -145 -39 -63
-15 -128 -31 -144 -36 -64 -20 -111 -3 -195 70 -13 12 -27 21 -31 21 -4 0 -29
21 -55 47 l-48 46 -88 -23 -89 -23 -59 22 c-32 11 -66 21 -77 21 -24 0 -154
-61 -154 -72 0 -17 -37 -7 -107 29 -40 20 -76 34 -79 30 -8 -7 -26 -77 -25
-99 0 -9 -6 -21 -12 -26 -17 -13 -144 -62 -161 -62 -7 0 -35 20 -61 45 -27 24
-63 49 -81 55 -18 6 -36 20 -39 30 -11 34 -31 43 -68 29 -28 -10 -42 -9 -82 5
-88 30 -146 22 -440 -61 -33 -9 -64 -20 -69 -25 -23 -19 -53 -7 -76 32 -28 44
-30 45 -76 28 -27 -9 -44 -8 -96 6 l-63 17 -33 -35 c-22 -25 -41 -36 -60 -36
-15 0 -40 -7 -56 -15 -15 -8 -35 -15 -43 -15 -8 0 -27 -7 -43 -15 -28 -14 -32
-14 -68 7 -21 13 -47 28 -57 34 -11 6 -27 24 -35 40 -8 16 -16 31 -17 33 -2 2
-11 -3 -22 -13 -15 -13 -24 -15 -46 -6 -19 7 -30 7 -34 1 -10 -15 -51 -9 -51
7 0 7 -6 11 -12 8 -7 -3 -21 -9 -30 -12 -10 -4 -18 -10 -18 -14 0 -17 -33 -19
-61 -5 -36 19 -118 35 -124 25 -9 -14 -55 -18 -55 -4 0 9 -10 11 -34 7 -44 -7
-53 9 -26 47 12 17 19 36 17 43 -4 9 -6 9 -6 0 -1 -7 -6 -13 -12 -13 -6 0 -9
10 -7 23 2 12 9 21 16 19 7 -1 12 8 12 22 0 19 -5 24 -20 23 -11 -1 -20 -5
-20 -9 0 -4 -9 -8 -20 -8 -17 0 -19 5 -15 28 6 26 6 26 -9 8 -9 -11 -16 -23
-16 -28 0 -4 -7 -8 -15 -8 -8 0 -15 5 -15 11 0 6 -9 9 -20 6 -10 -3 -21 0 -23
7 -3 7 -11 5 -24 -6 -35 -31 -47 -23 -44 27 1 12 -5 7 -14 -14 -12 -26 -18
-32 -27 -23 -13 13 -99 5 -109 -10 -8 -13 -49 12 -49 29 0 25 -19 12 -25 -17
-6 -29 -25 -42 -25 -18 0 6 -7 20 -16 30 -14 14 -14 21 -4 33 10 12 9 18 -4
30 -17 17 -36 12 -36 -9 0 -8 -9 -16 -20 -19 -11 -3 -20 -1 -20 5 0 5 -4 6
-10 3 -6 -4 -10 7 -10 24 0 17 -4 31 -10 31 -5 0 -10 -11 -10 -24 0 -13 -6
-29 -14 -35 -12 -10 -15 -8 -18 11 -3 26 -38 39 -38 14 0 -9 -7 -16 -15 -16
-8 0 -15 -4 -15 -10 0 -5 -5 -10 -11 -10 -5 0 -8 4 -4 9 3 5 1 12 -5 16 -5 3
-10 18 -10 31 0 16 -5 24 -12 21 -15 -4 -12 -55 4 -74 7 -9 7 -13 -1 -13 -6 0
-11 5 -11 10 0 6 -7 10 -15 10 -8 0 -15 5 -15 10 0 6 -9 10 -20 10 -16 0 -20
-7 -20 -31 0 -24 -3 -30 -16 -25 -9 3 -29 6 -45 6 -21 0 -29 5 -30 18 0 16 -1
16 -7 -1 -4 -10 -20 -24 -35 -32 -26 -13 -28 -13 -23 3 9 26 -26 45 -50 27
-22 -17 -50 -19 -59 -5 -11 18 14 47 47 54 31 7 32 8 10 17 -14 5 -31 4 -47
-3 -20 -9 -28 -9 -38 2 -10 10 -9 12 5 7 10 -3 20 -2 23 3 3 5 -4 11 -15 15
-11 3 -20 11 -20 16 0 6 -14 7 -33 4 -54 -9 -64 7 -31 49 30 38 39 42 49 26 8
-14 69 -13 117 2 46 14 65 40 43 58 -21 18 -19 57 5 70 11 6 20 17 20 25 0 19
-14 19 -30 0 -13 -16 -40 -20 -40 -7 0 5 -20 9 -44 9 -35 1 -49 -4 -65 -23
-26 -30 -69 -31 -104 -4 -18 15 -27 17 -30 8 -3 -10 -9 -11 -26 0 -26 15 -31
15 -31 1 0 -7 8 -18 17 -24 17 -12 17 -14 -1 -34 -15 -17 -16 -23 -6 -36 10
-13 9 -15 -9 -15 -23 0 -40 27 -25 39 5 3 15 13 22 22 10 14 9 17 -7 22 -14 3
-18 1 -14 -10 4 -11 1 -14 -8 -11 -8 2 -34 59 -59 125 -25 66 -50 131 -57 144
-7 13 -34 74 -61 134 -65 144 -178 343 -286 498 -47 69 -92 131 -98 139 -7 7
-42 47 -78 88 -378 440 -826 645 -1253 575 -60 -10 -96 -11 -113 -5 -16 7 -23
7 -19 0 7 -11 -33 -6 -110 15 -27 8 -75 17 -105 20 -61 7 -124 24 -117 32 3 2
32 -1 65 -8 49 -10 68 -10 104 1 l43 14 -30 7 c-28 6 -27 7 13 8 31 1 42 -3
42 -14 0 -8 5 -15 11 -15 6 0 9 7 5 15 -3 9 0 15 9 15 15 0 75 56 75 71 0 5
18 9 40 9 29 0 40 -4 40 -15 0 -11 11 -15 40 -15 29 0 40 4 40 15 0 8 -7 15
-16 15 -14 0 -15 2 -3 17 13 15 14 15 17 0 5 -23 82 -24 82 -2 0 11 11 15 40
15 22 0 40 5 40 10 0 15 77 12 83 -2 4 -9 14 -4 31 15 14 15 34 27 46 27 12 0
32 12 46 28 17 18 27 23 31 15 6 -15 83 -18 83 -3 0 6 18 10 40 10 29 0 40 4
40 15 0 11 11 15 40 15 29 0 40 4 40 15 0 11 11 15 40 15 29 0 40 -4 40 -15 0
-11 11 -15 40 -15 36 0 40 3 40 25 0 25 1 25 80 25 63 0 80 3 80 14 0 8 -7 16
-17 18 -15 3 -15 4 0 17 15 12 17 11 17 -3 0 -12 10 -16 40 -16 29 0 40 4 40
15 0 12 16 15 80 15 47 0 80 4 80 10 0 6 35 10 84 10 62 0 87 4 96 15 7 8 23
15 36 15 15 0 24 6 24 15 0 12 16 15 80 15 47 0 80 4 80 10 0 15 77 12 83 -2
4 -9 14 -4 31 15 28 30 46 35 46 12 0 -11 11 -15 40 -15 29 0 40 4 40 15 0 9
9 15 24 15 13 0 29 7 36 15 9 11 34 15 96 15 49 0 84 4 84 10 0 6 47 10 120
10 100 0 120 3 120 15 0 13 -420 15 -3720 15 l-3720 0 0 -1160z m168 1108 c7
-7 12 -41 12 -84 0 -64 -3 -75 -22 -88 -30 -21 -96 -20 -120 1 -14 13 -18 31
-18 88 0 42 5 76 12 83 7 7 37 12 68 12 31 0 61 -5 68 -12z m850 0 c7 -7 12
-41 12 -82 0 -113 27 -106 -389 -106 -425 0 -401 -6 -401 104 0 43 5 77 12 84
9 9 108 12 383 12 275 0 374 -3 383 -12z m440 0 c7 -7 12 -41 12 -82 0 -106 0
-106 -188 -106 -190 0 -192 1 -192 101 0 100 -1 99 194 99 113 0 166 -4 174
-12z m410 0 c7 -7 12 -41 12 -82 0 -105 -2 -106 -173 -106 -174 0 -177 2 -177
105 0 42 5 76 12 83 8 8 59 12 163 12 104 0 155 -4 163 -12z m4532 -93 c0 -10
-10 -15 -32 -15 -31 1 -32 1 -14 15 25 19 46 19 46 0z m-1887 -422 c-7 -2 -19
-2 -25 0 -7 3 -2 5 12 5 14 0 19 -2 13 -5z m215 -5 c-9 -7 -4 -8 15 -5 15 2
30 0 33 -4 8 -14 -48 -10 -74 5 -24 13 -24 13 7 13 22 0 28 -3 19 -9z m-215
-15 c-7 -2 -19 -2 -25 0 -7 3 -2 5 12 5 14 0 19 -2 13 -5z m-250 -10 c-7 -2
-19 -2 -25 0 -7 3 -2 5 12 5 14 0 19 -2 13 -5z m330 0 c-13 -2 -33 -2 -45 0
-13 2 -3 4 22 4 25 0 35 -2 23 -4z m-470 -10 c-7 -2 -19 -2 -25 0 -7 3 -2 5
12 5 14 0 19 -2 13 -5z m330 -20 c-7 -2 -19 -2 -25 0 -7 3 -2 5 12 5 14 0 19
-2 13 -5z m107 -3 c0 -6 23 -7 58 -4 41 4 91 -1 181 -20 68 -14 126 -26 130
-26 3 -1 -30 -15 -74 -33 -91 -37 -198 -104 -300 -187 -84 -69 -139 -127 -224
-237 -35 -46 -67 -80 -72 -77 -5 3 -7 -1 -4 -8 3 -7 -11 -38 -31 -68 -64 -98
-184 -354 -234 -501 -27 -79 -54 -145 -59 -147 -5 -2 -7 -10 -5 -17 3 -8 -4
-54 -16 -102 -12 -48 -32 -142 -45 -208 -13 -65 -28 -121 -34 -123 -6 -2 -17
-10 -24 -17 -10 -9 -19 -10 -31 -3 -15 9 -17 7 -11 -11 5 -16 2 -21 -13 -21
-14 0 -19 -7 -20 -31 0 -17 -6 -37 -13 -45 -15 -19 -99 -19 -99 0 0 7 -6 19
-14 25 -12 10 -17 8 -26 -9 -9 -16 -18 -21 -37 -17 -16 3 -32 -2 -43 -13 -29
-29 -116 -21 -146 13 -23 27 -60 28 -50 2 3 -10 -2 -10 -25 -2 -16 7 -29 19
-29 29 0 22 -19 33 -33 19 -6 -6 -25 -11 -42 -11 -43 0 -60 -13 -47 -36 12
-21 -3 -58 -19 -49 -5 4 -9 -1 -9 -9 0 -9 -6 -16 -14 -16 -20 0 -46 28 -46 48
0 12 -3 13 -12 4 -9 -9 -9 -15 0 -24 20 -20 14 -31 -13 -24 -15 4 -25 2 -25
-4 0 -12 -48 -3 -67 13 -10 7 -13 4 -13 -12 0 -15 6 -21 23 -21 26 0 65 -25
55 -35 -3 -4 -19 0 -36 9 -16 8 -32 13 -35 10 -3 -3 -14 -1 -24 4 -13 8 -22 7
-35 -5 -17 -15 -20 -14 -39 3 -21 19 -22 19 -15 -3 8 -25 6 -26 -18 -17 -9 3
-16 12 -16 20 0 8 -9 14 -21 14 -18 0 -20 -4 -15 -25 6 -22 3 -25 -19 -25 -20
0 -29 8 -41 35 -18 43 -28 46 -19 5 6 -26 4 -30 -15 -30 -32 0 -58 17 -75 50
-16 32 -45 41 -45 14 0 -11 -6 -14 -22 -8 -25 7 -38 22 -38 42 0 6 -4 12 -10
12 -5 0 -10 -17 -11 -37 0 -21 -3 -32 -6 -25 -5 14 -33 17 -33 3 0 -15 51 -51
71 -51 11 0 19 -6 19 -14 0 -9 -7 -12 -20 -9 -11 3 -20 9 -20 14 0 5 -9 9 -20
9 -30 0 -24 -16 13 -31 35 -14 58 -39 50 -53 -3 -4 -24 -5 -47 -2 -22 4 -56 9
-74 11 -18 2 -40 9 -48 15 -18 16 -45 -4 -37 -28 4 -14 3 -15 -6 -2 -8 11 -13
12 -22 3 -7 -7 -18 -8 -28 -4 -9 5 -31 13 -49 19 -27 9 -34 8 -39 -4 -10 -25
-40 -16 -52 17 -12 35 -35 30 -28 -7 4 -24 -16 -34 -28 -14 -4 6 -13 9 -22 8
-38 -7 -38 27 1 174 36 134 153 441 198 518 11 19 36 64 56 100 65 120 79 138
104 134 13 -1 75 -8 138 -13 63 -6 230 -23 370 -37 269 -27 388 -38 560 -53
58 -5 143 -14 190 -20 47 -6 130 -12 185 -15 l100 -5 -85 9 c-330 36 -714 76
-952 100 -114 11 -258 27 -319 35 -62 8 -130 15 -150 15 -21 0 -40 4 -43 8 -2
4 11 28 30 51 19 24 34 47 34 50 0 3 10 17 23 31 12 14 42 52 66 85 64 86 92
115 105 108 6 -3 8 -3 4 2 -11 11 12 36 26 28 6 -3 8 -2 3 2 -9 11 43 66 55
59 5 -3 7 -1 6 4 -2 5 18 31 43 58 35 38 48 47 57 38 8 -9 8 -14 1 -16 -6 -2
15 -4 48 -5 32 -1 105 -9 163 -17 57 -9 105 -14 107 -12 5 5 -116 26 -149 26
-15 0 -28 4 -30 9 -1 6 -28 11 -59 13 -75 4 -88 19 -47 51 17 14 38 23 46 19
10 -3 13 -1 8 6 -10 17 0 15 31 -5 15 -10 24 -13 20 -6 -15 24 4 43 44 43 28
0 39 4 39 15 0 17 -29 34 -50 28 -13 -4 -13 -3 0 6 11 7 21 6 37 -4 12 -8 43
-15 68 -15 38 0 50 5 70 28 21 23 26 25 35 12 9 -13 14 -11 35 13 23 26 28 27
115 27 89 0 90 0 90 25 0 25 1 25 84 25 62 0 87 4 96 15 7 8 23 15 36 15 15 0
24 6 24 15 0 11 11 15 40 15 36 0 40 3 40 25 0 23 4 25 40 25 29 0 40 4 40 15
0 11 11 15 40 15 22 0 40 5 40 10 0 6 18 10 41 10 31 0 51 8 79 30 28 22 48
30 79 30 23 0 41 5 41 10 0 6 20 10 44 10 26 0 48 6 56 15 7 8 23 15 36 15 15
0 24 6 24 15 0 11 11 15 40 15 22 0 40 5 40 10 0 6 33 10 80 10 63 0 80 3 80
15 0 7 -8 19 -17 24 -17 10 -17 10 0 11 9 0 17 -4 17 -10z m-403 -6 c-3 -3
-12 -4 -19 -1 -8 3 -5 6 6 6 11 1 17 -2 13 -5z m1258 -33 c288 -45 533 -181
819 -456 64 -61 180 -202 255 -309 65 -92 161 -242 161 -251 0 -2 19 -35 42
-72 42 -69 192 -392 204 -438 5 -20 3 -24 -10 -19 -10 4 -16 1 -16 -9 0 -8 -9
-17 -21 -20 -12 -3 -18 -3 -15 0 3 3 -2 12 -10 20 -8 9 -13 21 -10 28 2 7 -3
15 -12 18 -9 2 -37 42 -61 88 -104 196 -211 353 -382 559 -194 234 -474 463
-759 620 -134 74 -324 158 -430 189 -85 25 -132 42 -128 46 2 2 37 6 78 10 41
4 77 9 79 11 10 9 103 2 216 -15z m-1408 3 c-3 -3 -12 -4 -19 -1 -8 3 -5 6 6
6 11 1 17 -2 13 -5z m1119 -64 c190 -60 442 -172 560 -248 88 -56 199 -129
208 -137 6 -5 45 -37 86 -70 153 -123 371 -344 481 -490 58 -75 179 -254 179
-263 0 -4 18 -34 40 -67 44 -67 48 -82 23 -88 -14 -3 -13 -4 2 -3 27 1 87
-103 90 -157 2 -30 9 -45 28 -59 14 -10 28 -32 32 -48 4 -16 11 -32 16 -35 5
-4 9 -13 9 -21 0 -10 -12 -14 -40 -14 -31 0 -43 5 -55 24 -27 40 -60 57 -90
46 -31 -12 -33 -42 -4 -69 13 -12 42 -21 85 -26 41 -4 64 -11 64 -19 0 -7 18
-21 40 -32 22 -10 40 -25 40 -32 0 -9 -7 -8 -25 4 -14 9 -29 13 -33 9 -4 -4
-2 -10 4 -12 31 -11 47 -33 50 -68 4 -43 -6 -68 -16 -40 -6 18 -8 18 -26 -3
-20 -24 -46 -30 -43 -9 4 21 -17 62 -25 49 -4 -7 -17 -12 -30 -12 -12 0 -28
-6 -35 -12 -10 -11 -12 -9 -9 7 2 11 13 21 25 23 20 3 50 29 42 36 -2 2 -15 7
-29 10 -18 5 -21 5 -10 -3 12 -8 9 -12 -15 -21 -21 -8 -31 -8 -33 -1 -2 6 -10
11 -17 11 -8 0 -16 12 -18 28 -4 26 -4 26 -6 -4 -1 -29 -4 -32 -33 -30 -23 1
-33 -4 -36 -16 -2 -11 3 -18 12 -18 9 0 16 5 16 10 0 6 7 10 15 10 8 0 15 -6
15 -14 0 -8 6 -16 13 -19 6 -2 9 -7 6 -11 -3 -3 -27 0 -52 8 -56 17 -83 11
-112 -22 -18 -21 -27 -24 -57 -18 -20 4 -41 13 -48 21 -8 9 -24 12 -51 9 -36
-4 -39 -3 -39 21 0 14 -4 25 -10 25 -5 0 -10 9 -10 20 0 21 -24 27 -36 9 -3
-6 -16 -8 -28 -5 -38 12 -91 15 -101 6 -17 -13 -85 -6 -95 10 -5 8 -10 10 -10
5 0 -15 -52 -17 -61 -3 -6 9 -13 7 -28 -6 -18 -17 -21 -17 -21 -3 0 9 11 24
24 32 27 18 39 41 30 57 -4 6 -10 6 -17 -1 -7 -7 -14 -7 -24 0 -13 11 -14 10
-17 -13 0 -7 -16 -17 -33 -23 -18 -5 -33 -15 -33 -22 0 -23 -18 -14 -24 13 -5
19 -1 30 16 44 17 13 20 22 12 30 -8 8 -14 7 -24 -5 -18 -22 -49 -18 -60 8 -7
18 -9 18 -9 4 -1 -10 -6 -15 -11 -12 -6 4 -17 2 -25 -5 -11 -9 -18 -7 -34 9
-12 12 -21 26 -21 31 0 6 -4 10 -10 10 -5 0 -10 -12 -10 -26 0 -14 -4 -23 -10
-19 -16 10 -49 -5 -44 -19 6 -15 -18 -28 -33 -18 -5 4 -12 15 -16 25 -9 25
-27 21 -27 -8 0 -17 -5 -24 -17 -23 -46 4 -61 -2 -56 -21 3 -11 15 -22 26 -26
21 -7 21 -8 -3 -12 -14 -3 -30 -9 -36 -14 -29 -24 -184 14 -184 45 0 9 -8 16
-18 16 -32 0 -32 11 0 42 24 23 38 29 67 27 36 -3 101 19 101 33 0 5 8 8 19 8
20 0 45 23 35 33 -3 3 -15 1 -25 -6 -14 -9 -21 -9 -31 1 -17 17 -38 15 -38 -4
0 -14 -3 -14 -15 -4 -15 13 -19 8 -16 -22 1 -10 -3 -18 -8 -18 -6 0 -11 9 -11
19 0 27 -15 34 -33 16 -9 -8 -20 -15 -25 -15 -5 0 -17 -12 -27 -26 -9 -14 -19
-23 -22 -20 -3 3 -1 11 5 18 16 19 9 71 -11 91 -11 11 -17 27 -14 39 4 14 2
18 -9 14 -8 -3 -14 1 -14 8 0 8 15 17 35 20 36 7 50 19 40 36 -4 7 -13 6 -26
-1 -31 -16 -53 -4 -39 21 7 14 8 20 0 20 -6 0 -15 -12 -20 -26 -9 -22 -13 -24
-25 -14 -12 10 -21 10 -42 1 -25 -11 -25 -12 -8 -31 20 -22 13 -39 -8 -21 -11
9 -17 8 -27 -3 -6 -9 -9 -20 -5 -26 3 -5 -1 -10 -9 -10 -9 0 -16 5 -16 10 0 6
-5 10 -12 10 -6 0 -22 10 -35 22 -13 12 -35 21 -53 20 -20 0 -35 6 -45 21 -12
17 -18 19 -37 10 -13 -6 -31 -14 -42 -17 -17 -6 -18 -8 -2 -24 23 -27 20 -40
-13 -47 -16 -3 -32 -13 -35 -21 -10 -25 -49 2 -40 28 4 14 2 19 -7 16 -7 -2
-13 -12 -15 -22 -4 -25 -13 -31 -26 -18 -15 15 -48 16 -48 2 0 -5 -7 -10 -15
-10 -8 0 -15 -4 -15 -8 0 -5 -20 -7 -45 -6 -51 3 -57 -6 -20 -30 33 -22 35
-67 3 -60 -13 2 -36 5 -52 6 -18 2 -31 9 -34 20 -2 10 -13 18 -24 18 -15 0
-19 6 -17 28 2 15 -2 36 -9 47 -11 19 -11 19 -12 1 0 -13 -4 -16 -17 -11 -10
5 -28 9 -40 10 -27 2 -44 15 -20 15 20 0 21 4 7 31 -10 18 -43 28 -37 11 1 -4
-1 -8 -5 -10 -20 -6 -29 0 -38 23 -14 37 -33 32 -24 -7 6 -29 5 -31 -9 -20
-12 10 -17 10 -23 1 -4 -6 0 -16 9 -21 41 -22 60 -58 32 -58 -8 0 -15 5 -15
10 0 6 -7 10 -16 10 -14 0 -14 -3 -4 -15 7 -8 18 -15 26 -15 18 0 26 -17 19
-40 -6 -19 -8 -19 -42 -5 l-36 15 7 -39 c6 -39 -7 -65 -18 -36 -7 19 -26 19
-26 0 0 -19 -13 -19 -51 0 -16 9 -34 13 -39 10 -4 -3 -25 4 -44 16 -32 19 -40
20 -67 9 -16 -7 -32 -10 -35 -7 -7 6 38 235 73 374 l26 105 36 -6 c20 -3 68
-7 106 -10 58 -4 53 -3 -29 9 -54 8 -100 16 -102 18 -12 11 109 333 171 455
55 110 178 299 240 367 148 166 285 281 410 343 87 44 179 81 204 82 7 0 69
-18 137 -40z m-1209 24 c-3 -3 -12 -4 -19 -1 -8 3 -5 6 6 6 11 1 17 -2 13 -5z
m160 0 c-3 -3 -12 -4 -19 -1 -8 3 -5 6 6 6 11 1 17 -2 13 -5z m-497 -34 c-8
-5 -19 -10 -25 -10 -5 0 -3 5 5 10 8 5 20 10 25 10 6 0 3 -5 -5 -10z m37 -26
c-3 -3 -12 -4 -19 -1 -8 3 -5 6 6 6 11 1 17 -2 13 -5z m-171 -33 c-6 -9 -46
-22 -46 -15 0 3 10 9 23 14 29 11 29 11 23 1z m537 -8 c-13 -2 -33 -2 -45 0
-13 2 -3 4 22 4 25 0 35 -2 23 -4z m-542 -50 c13 -17 13 -17 -6 -3 -11 8 -22
16 -24 17 -2 2 0 3 6 3 6 0 17 -8 24 -17z m-216 -49 c-26 -20 -55 -36 -55 -30
0 5 63 46 70 46 3 -1 -4 -8 -15 -16z m295 -39 c0 -8 -7 -15 -16 -15 -14 0 -14
3 -4 15 7 8 14 15 16 15 2 0 4 -7 4 -15z m-395 -24 c-3 -6 -11 -11 -16 -11 -5
0 -4 6 3 14 14 16 24 13 13 -3z m105 15 c0 -2 -9 -6 -20 -9 -11 -3 -18 -1 -14
4 5 9 34 13 34 5z m-42 -28 c8 -10 3 -13 -19 -14 -26 -1 -27 0 -11 12 9 7 18
14 18 14 1 0 6 -6 12 -12z m-103 -8 c-3 -5 -16 -15 -28 -21 -21 -10 -21 -9 2
10 25 23 36 27 26 11z m45 -25 c0 -2 -15 -12 -32 -20 l-33 -16 25 20 c24 20
40 26 40 16z m-130 -40 c-7 -8 -17 -15 -22 -15 -6 0 -5 7 2 15 7 8 17 15 22
15 6 0 5 -7 -2 -15z m110 -25 c-6 -11 -15 -20 -20 -20 -16 0 -11 18 8 29 24
14 24 14 12 -9z m-65 -8 c-3 -3 -11 0 -18 7 -9 10 -8 11 6 5 10 -3 15 -9 12
-12z m-145 -42 c-7 -4 -16 -14 -21 -21 -6 -10 -8 -6 -5 11 3 14 5 26 5 27 1 1
8 0 17 -4 11 -4 12 -8 4 -13z m120 6 c0 -3 -4 -8 -10 -11 -5 -3 -10 -1 -10 4
0 6 5 11 10 11 6 0 10 -2 10 -4z m-73 -31 c0 -17 -13 -20 -21 -6 -4 5 0 12 6
14 7 3 13 6 14 6 0 1 1 -6 1 -14z m-127 -44 c-20 -13 -80 -73 -258 -259 -12
-13 -30 -34 -38 -48 -9 -13 -20 -21 -25 -18 -5 3 -6 -1 -4 -8 3 -8 -3 -23 -12
-33 -10 -11 -26 -33 -36 -48 -10 -15 -22 -25 -28 -22 -5 4 -9 3 -8 -2 3 -18
-2 -31 -21 -54 -12 -12 -30 -38 -41 -56 -12 -18 -24 -31 -27 -29 -4 2 -29 6
-57 9 -60 7 -566 63 -685 75 l-85 9 76 2 c55 1 80 5 89 16 7 9 29 15 52 15 31
0 45 6 60 25 13 17 29 25 51 25 18 0 41 7 51 15 13 10 43 15 82 15 55 0 65 3
82 25 17 21 28 25 71 25 31 0 51 4 51 11 0 6 11 20 25 31 14 11 25 25 25 33 0
7 7 18 15 25 13 11 15 8 15 -19 l0 -32 25 18 c18 14 24 27 25 56 0 26 4 37 15
37 9 0 15 -9 15 -25 0 -14 4 -25 9 -25 5 0 18 11 29 25 14 18 30 25 53 25 18
0 41 7 51 17 17 15 18 15 18 0 0 -25 19 -21 42 8 16 21 28 25 68 25 32 0 52
-5 57 -14 6 -12 14 -9 41 15 30 27 44 47 23 35 -5 -3 -24 -3 -42 2 -32 7 -31
7 20 12 34 3 56 10 59 19 3 10 0 12 -12 8 -9 -4 -16 -2 -16 4 0 7 10 9 25 5
14 -4 25 -2 25 4 0 5 6 10 13 10 8 0 22 9 32 20 10 11 21 17 24 14 3 -3 -5
-14 -19 -23z m-180 -41 c0 -5 -5 -10 -11 -10 -5 0 -7 5 -4 10 3 6 8 10 11 10
2 0 4 -4 4 -10z m40 -55 c0 -1 -6 -8 -14 -14 -11 -9 -15 -7 -19 8 -3 14 0 17
14 14 11 -3 19 -7 19 -8z m-1205 -420 c6 -1 -21 -4 -58 -6 -44 -3 -72 0 -78 7
-7 9 8 11 58 7 37 -3 73 -6 78 -8z m-162 -22 c-7 -2 -19 -2 -25 0 -7 3 -2 5
12 5 14 0 19 -2 13 -5z m3797 -493 c0 -5 -4 -10 -10 -10 -5 0 -10 5 -10 10 0
6 5 10 10 10 6 0 10 -4 10 -10z m1794 -57 c-2 -27 -4 -68 -4 -93 l-2 -45 -23
50 c-29 60 -29 65 -10 65 8 0 15 7 15 15 0 8 -4 15 -10 15 -18 0 -11 15 13 26
12 7 23 12 23 13 1 0 0 -20 -2 -46z m346 -10 c-1 -14 -27 -43 -39 -43 -16 0
-14 11 7 31 18 19 32 24 32 12z m-2410 -13 c0 -5 -2 -10 -4 -10 -3 0 -8 5 -11
10 -3 6 -1 10 4 10 6 0 11 -4 11 -10z m2103 -7 c2 -5 7 -20 11 -35 5 -21 3
-26 -8 -22 -15 6 -28 64 -15 64 4 0 10 -3 12 -7z m344 1 c-3 -3 -12 -4 -19 -1
-8 3 -5 6 6 6 11 1 17 -2 13 -5z m-2929 -48 c4 -19 -15 -21 -55 -5 -26 10 -27
11 -10 24 23 16 60 5 65 -19z m2732 24 c0 -5 -5 -10 -11 -10 -5 0 -7 5 -4 10
3 6 8 10 11 10 2 0 4 -4 4 -10z m230 0 c0 -5 -4 -10 -10 -10 -5 0 -10 5 -10
10 0 6 5 10 10 10 6 0 10 -4 10 -10z m-2330 -10 c0 -5 -4 -10 -10 -10 -5 0
-10 5 -10 10 0 6 5 10 10 10 6 0 10 -4 10 -10z m210 0 c0 -5 -5 -10 -11 -10
-5 0 -7 5 -4 10 3 6 8 10 11 10 2 0 4 -4 4 -10z m-952 -68 c-10 -11 -13 -10
-20 8 -11 30 2 48 18 25 11 -14 11 -22 2 -33z m2472 38 c0 -5 -4 -10 -10 -10
-5 0 -10 5 -10 10 0 6 5 10 10 10 6 0 10 -4 10 -10z m368 -26 c13 5 12 2 -2
-9 -24 -18 -50 -20 -42 -2 3 6 9 21 13 32 7 19 8 19 11 -3 3 -17 8 -22 20 -18z
m-2768 16 c0 -5 -2 -10 -4 -10 -3 0 -8 5 -11 10 -3 6 -1 10 4 10 6 0 11 -4 11
-10z m2650 -14 c0 -2 3 -11 6 -20 4 -10 1 -16 -9 -16 -8 0 -17 9 -20 20 -3 13
0 20 9 20 8 0 14 -2 14 -4z m58 -34 c2 -7 -3 -12 -12 -12 -9 0 -16 7 -16 16 0
17 22 14 28 -4z m77 -11 c-3 -6 -11 -8 -17 -5 -6 4 -5 9 3 15 16 10 23 4 14
-10z m-2380 -21 c3 -5 -3 -10 -15 -10 -12 0 -18 5 -15 10 3 6 10 10 15 10 5 0
12 -4 15 -10z m932 -12 c-3 -8 -6 -5 -6 6 -1 11 2 17 5 13 3 -3 4 -12 1 -19z
m-1882 -18 c3 -5 1 -10 -4 -10 -6 0 -11 5 -11 10 0 6 2 10 4 10 3 0 8 -4 11
-10z m-565 -20 c0 -5 -2 -10 -4 -10 -3 0 -8 5 -11 10 -3 6 -1 10 4 10 6 0 11
-4 11 -10z m3750 -26 c0 -8 -4 -14 -9 -14 -11 0 -22 26 -14 34 9 9 23 -3 23
-20z m110 1 c0 -8 7 -15 15 -15 8 0 15 -4 15 -10 0 -5 -7 -7 -15 -4 -8 4 -15
1 -15 -5 0 -6 5 -11 10 -11 6 0 10 -4 10 -10 0 -15 -40 -12 -41 3 0 6 -2 24
-4 40 -2 18 1 27 11 27 8 0 14 -7 14 -15z m125 -15 c3 -5 1 -10 -4 -10 -6 0
-11 5 -11 10 0 6 2 10 4 10 3 0 8 -4 11 -10z m-4004 -20 c23 -13 26 -45 3 -36
-9 3 -20 6 -25 6 -5 0 -9 9 -9 20 0 23 4 24 31 10z m3789 -4 c0 -3 -4 -8 -10
-11 -5 -3 -10 -1 -10 4 0 6 5 11 10 11 6 0 10 -2 10 -4z m-40 -16 c0 -5 -5
-10 -11 -10 -5 0 -7 5 -4 10 3 6 8 10 11 10 2 0 4 -4 4 -10z m290 -4 c0 -7 -7
-19 -16 -27 -13 -10 -17 -10 -24 0 -4 8 -13 10 -19 7 -6 -4 -9 -12 -5 -17 5
-8 -44 -8 -85 0 -2 1 7 10 20 20 38 30 129 42 129 17z m-2003 -2 c-3 -3 -12
-4 -19 -1 -8 3 -5 6 6 6 11 1 17 -2 13 -5z m-97 -24 c0 -5 -7 -10 -15 -10 -8
0 -15 5 -15 10 0 6 7 10 15 10 8 0 15 -4 15 -10z m2430 -4 c0 -3 -4 -8 -10
-11 -5 -3 -10 -1 -10 4 0 6 5 11 10 11 6 0 10 -2 10 -4z m100 -6 c0 -5 -4 -10
-10 -10 -5 0 -10 5 -10 10 0 6 5 10 10 10 6 0 10 -4 10 -10z m154 -11 c-3 -5
-10 -7 -15 -3 -5 3 -7 10 -3 15 3 5 10 7 15 3 5 -3 7 -10 3 -15z m-587 -5 c-3
-3 -12 -4 -19 -1 -8 3 -5 6 6 6 11 1 17 -2 13 -5z m-649 -26 c-2 -17 -9 -22
-23 -20 -30 6 -32 12 -11 28 28 20 38 17 34 -8z m1092 12 c0 -5 -4 -10 -10
-10 -5 0 -10 5 -10 10 0 6 5 10 10 10 6 0 10 -4 10 -10z m-5022 -10 c14 0 16
-26 3 -35 -15 -8 -58 15 -58 32 0 10 7 13 21 9 12 -3 27 -6 34 -6z m4112 0 c0
-5 -4 -10 -10 -10 -5 0 -10 5 -10 10 0 6 5 10 10 10 6 0 10 -4 10 -10z m390 0
c0 -5 -4 -10 -10 -10 -5 0 -10 5 -10 10 0 6 5 10 10 10 6 0 10 -4 10 -10z
m464 -25 c3 -8 1 -15 -4 -15 -6 0 -10 7 -10 15 0 8 2 15 4 15 2 0 6 -7 10 -15z
m536 5 c0 -5 -4 -10 -10 -10 -5 0 -10 5 -10 10 0 6 5 10 10 10 6 0 10 -4 10
-10z m-5445 -10 c3 -5 1 -10 -4 -10 -6 0 -11 5 -11 10 0 6 2 10 4 10 3 0 8 -4
11 -10z m-151 -29 c7 -10 -22 -37 -30 -28 -9 8 3 37 15 37 5 0 12 -4 15 -9z
m-625 -10 c8 -5 9 -11 3 -15 -13 -8 -42 3 -42 15 0 11 21 11 39 0z m-1051
-138 c-58 -15 -88 -13 -88 7 0 6 29 10 73 9 l72 -1 -57 -15z m1805 -310 c-7
-2 -19 -2 -25 0 -7 3 -2 5 12 5 14 0 19 -2 13 -5z m4542 -83 c3 -5 1 -10 -4
-10 -6 0 -11 5 -11 10 0 6 2 10 4 10 3 0 8 -4 11 -10z m-1105 -60 c0 -5 -4
-10 -10 -10 -5 0 -10 5 -10 10 0 6 5 10 10 10 6 0 10 -4 10 -10z m-364 -48
c-9 -9 -37 8 -31 18 5 8 11 7 21 -1 8 -6 12 -14 10 -17z m28 -81 c-8 -8 -44
32 -37 42 3 5 14 -1 24 -14 10 -13 16 -26 13 -28z m171 39 c3 -5 1 -10 -4 -10
-6 0 -11 5 -11 10 0 6 2 10 4 10 3 0 8 -4 11 -10z m70 -20 c3 -5 1 -10 -4 -10
-6 0 -11 5 -11 10 0 6 2 10 4 10 3 0 8 -4 11 -10z m-186 -37 c-7 -10 -15 -20
-16 -22 -2 -2 -3 5 -3 17 0 14 6 22 16 22 14 0 15 -3 3 -17z m3621 -97 c0 -3
-4 -8 -10 -11 -5 -3 -10 -1 -10 4 0 6 5 11 10 11 6 0 10 -2 10 -4z m64 -51
c19 -14 19 -15 -7 -15 -17 0 -27 5 -27 15 0 19 9 19 34 0z m3003 -51 c-3 -3
-12 -4 -19 -1 -8 3 -5 6 6 6 11 1 17 -2 13 -5z m-3380 -160 c-3 -3 -12 -4 -19
-1 -8 3 -5 6 6 6 11 1 17 -2 13 -5z m-6300 -120 c-3 -3 -12 -4 -19 -1 -8 3 -5
6 6 6 11 1 17 -2 13 -5z m6323 -4 c0 -5 -7 -10 -15 -10 -8 0 -15 5 -15 10 0 6
7 10 15 10 8 0 15 -4 15 -10z m-6309 -145 c11 6 11 5 2 -5 -12 -14 -33 -6 -33
13 0 8 3 7 9 -2 5 -8 14 -10 22 -6z m-46 -24 c-3 -6 -11 -11 -17 -11 -6 0 -6
6 2 15 14 17 26 13 15 -4z m5142 -231 c-1 -12 -8 -20 -19 -20 -11 0 -18 7 -18
20 0 13 7 20 19 20 14 0 19 -6 18 -20z m-4917 -14 c0 -11 -19 -15 -25 -6 -3 5
1 10 9 10 9 0 16 -2 16 -4z m3980 -186 c0 -13 -7 -20 -19 -20 -10 0 -21 9 -24
20 -4 16 0 20 19 20 17 0 24 -6 24 -20z m-266 -37 c4 -9 4 -18 1 -21 -7 -8
-35 19 -35 34 0 17 27 7 34 -13z m1886 -88 c33 -17 38 -30 15 -39 -22 -8 -75
5 -75 18 0 11 19 36 27 36 2 0 17 -7 33 -15z m-1233 -1 c-3 -3 -12 -4 -19 -1
-8 3 -5 6 6 6 11 1 17 -2 13 -5z m-1917 -15 c0 6 7 11 15 11 8 0 15 -7 15 -15
0 -13 4 -14 20 -5 22 12 150 2 150 -11 0 -5 -5 -9 -11 -9 -5 0 -7 -5 -3 -11 3
-6 19 -9 34 -5 40 7 45 -17 8 -33 -35 -16 -217 -10 -304 9 -45 10 -51 14 -47
34 4 18 12 23 41 24 19 1 40 6 46 12 6 6 14 6 23 -1 9 -8 13 -8 13 0z m2493
-8 c4 -1 7 -19 7 -40 l0 -40 -62 2 -63 2 -3 43 -3 43 58 -5 c32 -2 61 -5 66
-5z m604 -26 c3 -9 3 -19 -1 -22 -7 -7 -36 16 -36 28 0 15 30 10 37 -6z m967
-1 c9 -23 7 -46 -3 -40 -11 7 -21 56 -11 56 4 0 11 -7 14 -16z m-627 -20 c-3
-3 -12 -4 -19 -1 -8 3 -5 6 6 6 11 1 17 -2 13 -5z m-1507 -23 c-61 -17 -206
-87 -277 -134 -20 -13 -31 -28 -28 -37 10 -33 -57 -79 -86 -58 -11 7 -11 11
-1 15 26 10 10 23 -28 23 -33 0 -42 -4 -49 -22 -5 -13 -7 -26 -4 -30 2 -5 -5
-8 -16 -8 -12 0 -21 5 -21 10 0 6 -6 10 -13 10 -21 0 -14 47 11 69 13 11 21
24 18 30 -4 5 3 16 14 24 19 13 19 16 6 30 -14 13 -13 15 7 21 14 3 26 0 33
-9 16 -22 31 -18 38 9 5 19 14 25 53 30 27 4 69 11 94 17 66 15 173 26 249 27
l65 0 -65 -17z m663 -5 c17 -13 22 -37 10 -49 -10 -11 -43 24 -43 45 0 21 8
22 33 4z m667 4 c0 -5 -2 -10 -4 -10 -3 0 -8 5 -11 10 -3 6 -1 10 4 10 6 0 11
-4 11 -10z m-4775 -50 c3 -5 -3 -10 -14 -10 -12 0 -21 5 -21 10 0 6 6 10 14
10 8 0 18 -4 21 -10z m-60 -30 c-7 -22 13 -28 32 -9 7 7 25 9 49 5 28 -6 34
-10 25 -19 -9 -9 -14 -9 -20 1 -7 11 -9 10 -14 -2 -8 -21 -70 -21 -87 -1 -10
12 -10 18 0 30 17 21 23 19 15 -5z m3879 -26 c8 -21 -12 -17 -24 6 -8 16 -8
18 4 14 8 -3 17 -12 20 -20z m-606 -107 c2 -11 -3 -17 -16 -17 -24 0 -32 8
-25 26 7 20 37 13 41 -9z m-191 -33 c-3 -3 -12 -4 -19 -1 -8 3 -5 6 6 6 11 1
17 -2 13 -5z m-3463 -37 c15 -24 -3 -35 -20 -13 -8 11 -14 24 -14 29 0 13 22
3 34 -16z m4186 13 c-20 -13 -33 -13 -25 0 3 6 14 10 23 10 15 0 15 -2 2 -10z
m-4552 -52 c-4 -28 -56 -44 -77 -24 -17 18 -5 39 19 33 10 -2 24 -1 31 4 23
14 31 10 27 -13z m1802 -4 c0 -8 -4 -14 -8 -14 -4 0 -8 9 -8 19 0 11 4 17 8
15 4 -3 8 -12 8 -20z m2810 0 c0 -8 -4 -12 -10 -9 -5 3 -10 10 -10 16 0 5 5 9
10 9 6 0 10 -7 10 -16z m-1356 0 c20 -8 21 -38 1 -54 -23 -19 -65 -4 -65 24 0
12 3 26 7 29 8 9 36 9 57 1z m1276 2 c0 -2 -7 -6 -15 -10 -8 -3 -15 -1 -15 4
0 6 7 10 15 10 8 0 15 -2 15 -4z m-2620 -16 c0 -5 -4 -10 -10 -10 -5 0 -10 5
-10 10 0 6 5 10 10 10 6 0 10 -4 10 -10z m87 -22 c-3 -8 -6 -5 -6 6 -1 11 2
17 5 13 3 -3 4 -12 1 -19z m2043 -13 c11 -13 8 -15 -14 -15 -25 0 -33 10 -19
23 10 11 19 8 33 -8z m705 5 c3 -5 1 -10 -4 -10 -6 0 -11 5 -11 10 0 6 2 10 4
10 3 0 8 -4 11 -10z m-55 -10 c0 -5 -10 -10 -22 -9 -22 0 -22 1 -3 9 11 5 21
9 23 9 1 1 2 -3 2 -9z m640 -4 c0 -3 -4 -8 -10 -11 -5 -3 -10 -1 -10 4 0 6 5
11 10 11 6 0 10 -2 10 -4z m-3463 -12 c-3 -3 -12 -4 -19 -1 -8 3 -5 6 6 6 11
1 17 -2 13 -5z m-1053 -70 c21 -8 21 -63 0 -71 -21 -8 -64 17 -64 37 0 32 29
47 64 34z m1206 -4 c0 -5 -7 -10 -15 -10 -8 0 -15 5 -15 10 0 6 7 10 15 10 8
0 15 -4 15 -10z m1418 -12 c22 -22 14 -57 -15 -64 -48 -13 -83 33 -46 61 22
18 45 19 61 3z m-1883 -8 c-3 -5 -12 -10 -20 -10 -8 0 -17 5 -20 10 -4 6 5 10
20 10 15 0 24 -4 20 -10z m3003 -61 c-2 -6 -8 -10 -13 -10 -5 0 -11 4 -13 10
-2 6 4 11 13 11 9 0 15 -5 13 -11z m52 -5 c0 -9 -5 -14 -12 -12 -18 6 -21 28
-4 28 9 0 16 -7 16 -16z m-1715 -13 c15 -49 -48 -73 -79 -29 -14 19 -14 23 2
34 26 20 70 17 77 -5z m313 -10 c12 -10 22 -24 22 -30 0 -8 -5 -7 -16 3 -20
20 -34 20 -34 0 0 -8 -4 -12 -10 -9 -14 9 -12 42 3 48 6 3 12 6 13 6 1 1 11
-7 22 -18z m1352 -21 c0 -5 -7 -10 -15 -10 -8 0 -15 5 -15 10 0 6 7 10 15 10
8 0 15 -4 15 -10z m50 -5 c0 -8 -4 -15 -10 -15 -5 0 -10 7 -10 15 0 8 5 15 10
15 6 0 10 -7 10 -15z m-1375 -55 c3 -5 1 -10 -4 -10 -6 0 -11 5 -11 10 0 6 2
10 4 10 3 0 8 -4 11 -10z m-1995 -40 c0 -5 -4 -10 -10 -10 -5 0 -10 5 -10 10
0 6 5 10 10 10 6 0 10 -4 10 -10z m1616 -45 c-11 -8 -22 -12 -25 -9 -6 6 19
24 34 24 6 -1 1 -7 -9 -15z m-1556 -5 c0 -5 -4 -10 -10 -10 -5 0 -10 5 -10 10
0 6 5 10 10 10 6 0 10 -4 10 -10z m4543 -4 c4 -10 1 -13 -8 -9 -8 3 -12 9 -9
14 7 12 11 11 17 -5z m-4053 -6 c0 -5 -9 -10 -19 -10 -11 0 -23 5 -26 10 -4 6
5 10 19 10 14 0 26 -4 26 -10z m243 -10 c-3 -11 -13 -20 -22 -20 -14 0 -14 2
-1 10 13 9 13 10 0 11 -10 0 -8 3 5 9 11 5 21 9 22 9 0 1 -1 -8 -4 -19z m1997
5 c0 -8 -6 -15 -14 -15 -17 0 -28 14 -19 24 12 12 33 6 33 -9z m2324 -4 c4 -5
-3 -7 -14 -4 -23 6 -26 13 -6 13 8 0 17 -4 20 -9z m-4504 -31 c0 -13 -28 -25
-38 -16 -3 4 0 11 8 16 20 13 30 12 30 0z m4018 -17 c0 -10 0 -22 2 -28 7 -27
0 -36 -20 -25 -10 6 -17 17 -15 25 3 8 7 22 10 30 6 21 24 19 23 -2z m-4353
-13 c3 -5 -1 -10 -9 -10 -9 0 -16 5 -16 10 0 6 4 10 9 10 6 0 13 -4 16 -10z
m2535 -10 c0 -11 -7 -20 -15 -20 -18 0 -19 12 -3 28 16 16 18 15 18 -8z m2908
-7 c27 -5 32 -10 32 -33 0 -27 -1 -27 -42 -18 -115 27 -128 31 -128 46 0 12 3
12 15 2 18 -15 69 -5 59 12 -5 8 -1 9 12 4 10 -4 34 -10 52 -13z m-5223 -3 c3
-5 1 -10 -4 -10 -6 0 -11 5 -11 10 0 6 2 10 4 10 3 0 8 -4 11 -10z m2220 -24
c-11 -7 -39 -17 -63 -21 -36 -6 -41 -4 -36 9 3 9 9 14 13 12 3 -3 22 -1 41 4
55 13 67 12 45 -4z m-1688 -2 c-3 -3 -12 -4 -19 -1 -8 3 -5 6 6 6 11 1 17 -2
13 -5z m4913 -25 c3 -5 30 -22 60 -39 l55 -31 -45 6 c-123 18 -143 30 -124 79
5 13 10 13 27 4 12 -6 24 -15 27 -19z m-4530 17 c0 -9 -30 -14 -35 -6 -4 6 3
10 14 10 12 0 21 -2 21 -4z m-255 -16 c4 -6 -5 -10 -19 -10 -14 0 -26 5 -26
10 0 6 9 10 19 10 11 0 23 -4 26 -10z m3345 -20 c0 -5 -4 -10 -9 -10 -6 0 -13
5 -16 10 -3 6 1 10 9 10 9 0 16 -4 16 -10z m-3243 -6 c-3 -3 -12 -4 -19 -1 -8
3 -5 6 6 6 11 1 17 -2 13 -5z m1461 -31 c-2 -14 -17 -20 -58 -24 -30 -4 -75
-10 -99 -14 -35 -7 -43 -5 -39 6 3 8 20 16 39 20 19 3 43 10 54 17 11 6 39 12
63 12 36 0 43 -3 40 -17z m-2173 -3 c3 -5 -1 -10 -9 -10 -9 0 -16 5 -16 10 0
6 4 10 9 10 6 0 13 -4 16 -10z m6225 0 c0 -5 -2 -10 -4 -10 -3 0 -8 5 -11 10
-3 6 -1 10 4 10 6 0 11 -4 11 -10z m-1710 -16 c0 -2 -7 -4 -15 -4 -8 0 -15 4
-15 10 0 5 7 7 15 4 8 -4 15 -8 15 -10z m1360 -3 c0 -6 -4 -13 -10 -16 -5 -3
-10 1 -10 9 0 9 5 16 10 16 6 0 10 -4 10 -9z m346 -38 c-10 -10 -19 5 -10 18
6 11 8 11 12 0 2 -7 1 -15 -2 -18z m-6265 -6 c-13 -13 -26 -3 -16 12 3 6 11 8
17 5 6 -4 6 -10 -1 -17z m569 13 c0 -5 -9 -10 -21 -10 -11 0 -17 5 -14 10 3 6
13 10 21 10 8 0 14 -4 14 -10z m1247 -16 c-3 -3 -12 -4 -19 -1 -8 3 -5 6 6 6
11 1 17 -2 13 -5z m-572 -23 c-3 -6 -18 -11 -33 -10 l-27 1 30 13 c32 14 41
13 30 -4z m3486 6 c-1 -12 -15 -9 -19 4 -3 6 1 10 8 8 6 -3 11 -8 11 -12z
m1508 -27 c-6 -16 -15 -30 -20 -30 -13 0 -11 7 7 35 22 33 25 31 13 -5z m41
11 c0 -6 -5 -13 -10 -16 -6 -4 -8 -10 -5 -15 3 -5 1 -11 -5 -15 -11 -7 -12 0
-4 33 6 21 24 31 24 13z m22 -33 c-9 -9 -12 -7 -12 12 0 19 3 21 12 12 9 -9 9
-15 0 -24z m-2114 -3 c-3 -3 -9 2 -12 12 -6 14 -5 15 5 6 7 -7 10 -15 7 -18z
m-1380 -52 c-3 -54 -15 -60 -93 -48 -38 5 -43 9 -47 36 -7 45 13 59 83 59 l60
0 -3 -47z m-1661 30 c-9 -2 -15 -8 -13 -11 2 -4 -9 -8 -25 -9 -16 -1 -29 2
-29 7 0 12 20 18 55 18 17 0 22 -2 12 -5z m243 3 c0 -2 -7 -7 -16 -10 -8 -3
-12 -2 -9 4 6 10 25 14 25 6z m1517 -23 c-1 -19 3 -28 16 -31 13 -3 17 3 17
22 0 26 23 36 35 16 3 -5 1 -10 -4 -10 -6 0 -11 -7 -11 -15 0 -8 5 -15 10 -15
17 0 11 -28 -6 -32 -9 -2 -39 -1 -65 0 l-49 4 0 44 c0 42 1 44 29 44 26 0 30
-3 28 -27z m-2597 9 c0 -13 -12 -22 -22 -16 -10 6 -1 24 13 24 5 0 9 -4 9 -8z
m936 -1 c-3 -5 -19 -14 -36 -19 -24 -9 -30 -8 -30 3 0 13 18 22 53 24 10 0 16
-3 13 -8z m-790 -47 c-6 -16 -66 -20 -66 -4 0 6 -10 8 -24 4 -13 -3 -27 -1
-31 5 -9 15 40 33 70 25 13 -3 26 0 30 6 10 17 29 -16 21 -36z m254 42 c0 -2
-7 -6 -15 -10 -8 -3 -15 -1 -15 4 0 6 7 10 15 10 8 0 15 -2 15 -4z m574 -31
c-29 -22 -42 -17 -15 6 13 11 26 17 29 14 3 -3 -3 -12 -14 -20z m-1144 -4 c0
-6 -5 -13 -12 -17 -6 -4 -8 -3 -4 4 3 5 0 13 -6 15 -8 3 -6 6 5 6 9 1 17 -3
17 -8z m1227 -17 c-3 -3 -12 -4 -19 -1 -8 3 -5 6 6 6 11 1 17 -2 13 -5z m-787
-24 c-8 -5 -31 -9 -50 -9 -29 0 -31 2 -15 9 11 5 34 9 50 9 23 1 26 -2 15 -9z
m-350 -30 c0 -5 -10 -6 -22 -3 -19 4 -20 3 -8 -6 12 -9 11 -11 -7 -11 -27 0
-30 15 -6 28 18 10 43 5 43 -8z m2556 12 c15 -9 15 -64 0 -59 -6 2 -10 12 -8
21 2 9 -3 15 -9 14 -7 -2 -15 5 -17 15 -4 17 14 23 34 9z m1337 -11 c8 -8 -5
-11 -44 -11 -42 0 -61 -5 -78 -21 -12 -11 -39 -22 -59 -24 -20 -1 -31 -1 -24
2 20 8 14 33 -8 33 -40 0 -19 20 23 21 23 1 56 5 72 9 37 11 104 5 118 -9z
m-3773 2 c0 -5 -11 -9 -25 -9 -14 -1 -25 2 -25 7 0 5 11 9 25 9 14 0 25 -3 25
-7z m-1210 -34 c0 -6 -4 -7 -10 -4 -5 3 -10 11 -10 16 0 6 5 7 10 4 6 -3 10
-11 10 -16z m2180 7 c0 -16 -37 -46 -57 -46 -21 0 -15 28 9 44 28 20 48 20 48
2z m83 7 c-7 -2 -19 -2 -25 0 -7 3 -2 5 12 5 14 0 19 -2 13 -5z m2470 0 c-7
-2 -19 -2 -25 0 -7 3 -2 5 12 5 14 0 19 -2 13 -5z m-3453 -13 c-19 -13 -30
-13 -30 0 0 6 10 10 23 10 18 0 19 -2 7 -10z m1045 0 c3 -5 -3 -10 -14 -10
-12 0 -21 5 -21 10 0 6 6 10 14 10 8 0 18 -4 21 -10z m-860 -20 c3 -5 -1 -10
-9 -10 -9 0 -16 5 -16 10 0 6 4 10 9 10 6 0 13 -4 16 -10z m505 -6 c0 -2 -15
-4 -32 -4 -23 0 -29 3 -19 9 12 8 51 4 51 -5z m280 -8 c0 -15 -24 -28 -34 -19
-7 7 13 33 25 33 5 0 9 -6 9 -14z m-664 -11 c18 -14 17 -14 -13 -15 -18 0 -33
-4 -33 -10 0 -5 -7 -10 -15 -10 -8 0 -15 5 -15 10 0 6 7 10 15 10 8 0 15 7 15
15 0 19 21 19 46 0z m424 5 c0 -5 -4 -10 -9 -10 -6 0 -13 5 -16 10 -3 6 1 10
9 10 9 0 16 -4 16 -10z m1027 -5 c-3 -8 -47 -36 -96 -61 -9 -5 -24 5 -42 27
-16 19 -29 36 -29 39 0 3 38 5 85 5 51 0 84 -4 82 -10z m-1172 -13 c-3 -3 -11
0 -18 7 -9 10 -8 11 6 5 10 -3 15 -9 12 -12z m-658 2 c-3 -3 -12 -4 -19 -1 -8
3 -5 6 6 6 11 1 17 -2 13 -5z m928 -4 c3 -5 -1 -10 -10 -10 -9 0 -13 5 -10 10
3 6 8 10 10 10 2 0 7 -4 10 -10z m-718 -6 c-3 -3 -12 -4 -19 -1 -8 3 -5 6 6 6
11 1 17 -2 13 -5z m773 -23 c0 -6 -5 -13 -10 -16 -15 -9 -43 3 -35 15 8 13 45
13 45 1z m-75 -21 c-3 -5 -13 -10 -21 -10 -8 0 -14 5 -14 10 0 6 9 10 21 10
11 0 17 -4 14 -10z m15 -129 c5 -11 10 -42 10 -69 l0 -50 -47 -16 c-74 -25
-73 -26 -73 62 0 43 3 82 7 85 3 4 26 7 49 7 33 0 46 -5 54 -19z m167 6 c3 -4
8 -37 10 -74 6 -90 -8 -111 -63 -98 -32 8 -40 15 -42 38 -2 15 -8 27 -13 27
-10 0 -12 80 -2 105 5 14 15 16 55 13 27 -3 51 -8 55 -11z m133 -57 c-20 -13
-33 -13 -25 0 3 6 14 10 23 10 15 0 15 -2 2 -10z m526 -308 c-11 -10 -14 3 -8
33 l7 30 3 -28 c2 -16 1 -31 -2 -35z m-29 26 c-3 -8 -6 -5 -6 6 -1 11 2 17 5
13 3 -3 4 -12 1 -19z m-19 0 c-2 -6 -10 -14 -16 -16 -7 -2 -10 2 -6 12 7 18
28 22 22 4z m581 -134 c-14 -18 -24 -11 -15 11 3 9 11 13 16 10 8 -5 7 -11 -1
-21z m-3969 6 c0 -5 -2 -10 -4 -10 -3 0 -8 5 -11 10 -3 6 -1 10 4 10 6 0 11
-4 11 -10z m2174 -11 c-3 -5 -10 -7 -15 -3 -5 3 -7 10 -3 15 3 5 10 7 15 3 5
-3 7 -10 3 -15z m1999 -55 c-27 -20 -39 -17 -18 6 10 11 22 17 27 14 5 -3 1
-12 -9 -20z m-2143 -28 c0 -2 -7 -7 -16 -10 -8 -3 -12 -2 -9 4 6 10 25 14 25
6z m2020 -31 c0 -8 -4 -15 -9 -15 -13 0 -22 16 -14 24 11 11 23 6 23 -9z
m-260 -25 c20 -20 26 -40 13 -40 -10 0 -53 42 -53 52 0 14 19 9 40 -12z m330
10 c0 -5 -7 -10 -16 -10 -8 0 -12 5 -9 10 3 6 10 10 16 10 5 0 9 -4 9 -10z
m-230 -12 c0 -4 -7 -8 -15 -8 -8 0 -15 4 -15 8 0 5 7 9 15 9 8 0 15 -4 15 -9z
m417 -14 c-3 -3 -12 -4 -19 -1 -8 3 -5 6 6 6 11 1 17 -2 13 -5z m-4517 -19 c0
-8 -4 -15 -10 -15 -5 0 -10 7 -10 15 0 8 5 15 10 15 6 0 10 -7 10 -15z m6256
-9 c24 -18 17 -26 -18 -19 -16 3 -28 12 -28 19 0 18 21 18 46 0z m-1856 0 c0
-11 -19 -15 -25 -6 -3 5 1 10 9 10 9 0 16 -2 16 -4z m-373 -12 c-3 -3 -12 -4
-19 -1 -8 3 -5 6 6 6 11 1 17 -2 13 -5z m134 -4 c6 0 8 -4 5 -9 -8 -12 -46 -2
-46 11 0 6 7 7 16 4 9 -3 20 -6 25 -6z m-321 -20 c0 -13 -11 -13 -30 0 -12 8
-11 10 8 10 12 0 22 -4 22 -10z m-3806 -25 c3 -8 1 -15 -4 -15 -6 0 -10 7 -10
15 0 8 2 15 4 15 2 0 6 -7 10 -15z m2636 -11 c0 -8 -4 -12 -10 -9 -5 3 -10 13
-10 21 0 8 5 12 10 9 6 -3 10 -13 10 -21z m2270 6 c0 -5 -4 -10 -10 -10 -5 0
-10 5 -10 10 0 6 5 10 10 10 6 0 10 -4 10 -10z m-1370 -25 c0 -1 -7 -8 -15
-15 -13 -10 -15 -9 -15 8 0 15 5 20 15 16 8 -4 15 -7 15 -9z m420 -5 c0 -5 -2
-10 -4 -10 -3 0 -8 5 -11 10 -3 6 -1 10 4 10 6 0 11 -4 11 -10z m2250 0 c0 -5
-4 -10 -10 -10 -5 0 -10 5 -10 10 0 6 5 10 10 10 6 0 10 -4 10 -10z m187 -12
c-3 -8 -6 -5 -6 6 -1 11 2 17 5 13 3 -3 4 -12 1 -19z m-3571 -15 c-10 -10 -19
5 -10 18 6 11 8 11 12 0 2 -7 1 -15 -2 -18z m790 11 c-3 -9 -6 -18 -6 -20 0
-2 -9 -4 -20 -4 -25 0 -26 16 -2 29 25 15 35 13 28 -5z m2689 -12 c-7 -8 -35
7 -35 18 0 6 7 6 20 -2 10 -7 17 -14 15 -16z m-1325 -15 c0 -5 -4 -5 -10 -2
-5 3 -10 14 -10 23 0 15 2 15 10 2 5 -8 10 -19 10 -23z m-770 8 c11 -13 10
-14 -4 -9 -9 3 -16 10 -16 15 0 13 6 11 20 -6z m2230 -12 c-1 -27 -1 -27 -15
-9 -19 25 -19 36 0 36 10 0 15 -10 15 -27z m-3740 -3 c0 -5 -4 -10 -10 -10 -5
0 -10 5 -10 10 0 6 5 10 10 10 6 0 10 -4 10 -10z m183 -5 c4 -8 2 -17 -2 -20
-5 -2 -11 4 -14 15 -6 23 8 27 16 5z m554 -7 c-3 -8 -6 -5 -6 6 -1 11 2 17 5
13 3 -3 4 -12 1 -19z m3093 0 c0 -16 -3 -19 -11 -11 -6 6 -8 16 -5 22 11 17
16 13 16 -11z m-2562 -16 c2 -7 -3 -12 -12 -12 -9 0 -16 7 -16 16 0 17 22 14
28 -4z m1257 8 c-3 -5 -11 -10 -16 -10 -6 0 -7 5 -4 10 3 6 11 10 16 10 6 0 7
-4 4 -10z m-955 -4 c0 -2 -7 -7 -16 -10 -8 -3 -12 -2 -9 4 6 10 25 14 25 6z
m1250 0 c0 -3 -4 -8 -10 -11 -5 -3 -10 -1 -10 4 0 6 5 11 10 11 6 0 10 -2 10
-4z m595 -46 c9 0 12 -6 9 -15 -6 -15 -26 -22 -21 -7 1 4 -8 17 -20 30 -13 12
-23 27 -23 33 0 7 9 0 21 -15 11 -14 27 -26 34 -26z m-3022 13 c3 -16 8 -35
12 -44 4 -12 -1 -18 -19 -21 -25 -5 -26 -4 -20 33 5 27 3 39 -5 39 -7 0 -9 5
-6 10 12 19 33 10 38 -17z m2927 11 c0 -8 -4 -12 -10 -9 -5 3 -10 10 -10 16 0
5 5 9 10 9 6 0 10 -7 10 -16z m350 -9 c0 -9 -6 -12 -15 -9 -8 4 -15 10 -15 15
0 5 7 9 15 9 8 0 15 -7 15 -15z m250 5 c0 -5 -4 -10 -10 -10 -5 0 -10 5 -10
10 0 6 5 10 10 10 6 0 10 -4 10 -10z m5670 -4 c11 0 16 -12 16 -38 2 -44 -13
-49 -43 -15 -36 40 -38 76 -4 61 9 -4 23 -7 31 -8z m-9560 1 c0 -2 -9 -14 -19
-26 -14 -16 -21 -19 -27 -10 -4 7 1 18 11 26 18 12 35 17 35 10z m280 -13 c0
-8 -5 -12 -10 -9 -6 4 -8 11 -5 16 9 14 15 11 15 -7z m3726 2 c21 -21 17 -26
-10 -13 -13 7 -22 15 -20 19 7 11 14 10 30 -6z m-1571 -6 c3 -5 -1 -10 -9 -10
-8 0 -18 5 -21 10 -3 6 1 10 9 10 8 0 18 -4 21 -10z m1045 0 c0 -5 -5 -10 -11
-10 -5 0 -7 5 -4 10 3 6 8 10 11 10 2 0 4 -4 4 -10z m-3375 -10 c3 -5 1 -10
-4 -10 -6 0 -11 5 -11 10 0 6 2 10 4 10 3 0 8 -4 11 -10z m-385 -20 c0 -4 -8
-11 -17 -14 -19 -8 -38 7 -29 22 7 11 46 4 46 -8z m3465 2 c-3 -3 -11 0 -18 7
-9 10 -8 11 6 5 10 -3 15 -9 12 -12z m-3655 -2 c0 -5 -7 -10 -15 -10 -8 0 -15
5 -15 10 0 6 7 10 15 10 8 0 15 -4 15 -10z m1180 -32 c0 -11 -7 -10 -29 4 -14
9 -16 14 -7 24 9 10 13 10 24 -4 6 -8 12 -19 12 -24z m1370 38 c0 -2 -7 -7
-16 -10 -8 -3 -12 -2 -9 4 6 10 25 14 25 6z m180 0 c0 -2 -7 -7 -16 -10 -8 -3
-12 -2 -9 4 6 10 25 14 25 6z m-1440 -26 c0 -5 -5 -10 -11 -10 -5 0 -7 5 -4
10 3 6 8 10 11 10 2 0 4 -4 4 -10z m1310 -24 c-14 -39 -35 -57 -48 -44 -13 13
-4 38 14 38 8 0 14 6 14 14 0 12 20 27 28 21 1 -1 -2 -14 -8 -29z m900 24 c-8
-5 -22 -9 -30 -9 -10 0 -8 3 5 9 27 12 43 12 25 0z m-1940 -4 c0 -3 -4 -8 -10
-11 -5 -3 -10 -1 -10 4 0 6 5 11 10 11 6 0 10 -2 10 -4z m900 -6 c0 -5 -4 -10
-9 -10 -6 0 -13 5 -16 10 -3 6 1 10 9 10 9 0 16 -4 16 -10z m1150 0 c0 -5 -15
-10 -32 -10 -25 0 -29 3 -18 10 20 13 50 13 50 0z m-2003 -22 c-3 -8 -6 -5 -6
6 -1 11 2 17 5 13 3 -3 4 -12 1 -19z m49 -5 c-10 -10 -19 5 -10 18 6 11 8 11
12 0 2 -7 1 -15 -2 -18z m-1146 5 c-1 -16 -24 -48 -35 -48 -4 0 -5 7 -1 15 3
8 1 15 -4 15 -6 0 -10 7 -10 15 0 9 9 15 25 15 14 0 25 -6 25 -12z m50 -18
c12 -8 11 -10 -7 -10 -13 0 -23 5 -23 10 0 13 11 13 30 0z m440 -10 c-28 -22
-40 -25 -40 -10 0 11 30 29 50 29 10 1 6 -6 -10 -19z m-90 -5 c-7 -8 -17 -15
-22 -15 -6 0 -5 7 2 15 7 8 17 15 22 15 6 0 5 -7 -2 -15z m1580 -10 c0 -8 -2
-15 -4 -15 -2 0 -6 7 -10 15 -3 8 -1 15 4 15 6 0 10 -7 10 -15z m1587 -7 c-3
-8 -6 -5 -6 6 -1 11 2 17 5 13 3 -3 4 -12 1 -19z m-63 6 c23 -9 20 -24 -4 -24
-11 0 -20 -5 -20 -12 0 -6 -3 -9 -6 -5 -6 5 4 47 11 47 2 0 10 -3 19 -6z
m-3166 -17 c16 6 15 -7 -2 -29 -7 -10 -25 -18 -39 -18 -14 0 -29 -4 -32 -10
-3 -5 -15 -10 -26 -10 -28 0 -21 34 9 38 12 2 27 12 32 23 8 14 15 17 28 10 9
-4 23 -6 30 -4z m1159 7 c-3 -3 -12 -4 -19 -1 -8 3 -5 6 6 6 11 1 17 -2 13 -5z
m-1777 -8 c0 -3 -4 -8 -10 -11 -5 -3 -10 -1 -10 4 0 6 5 11 10 11 6 0 10 -2
10 -4z m867 -2 c-3 -3 -12 -4 -19 -1 -8 3 -5 6 6 6 11 1 17 -2 13 -5z m1553
-3 c0 -5 -7 -11 -15 -15 -15 -5 -20 5 -8 17 9 10 23 9 23 -2z m-180 -35 c0
-26 -55 -80 -74 -73 -8 3 -16 -2 -19 -14 -7 -25 -50 -27 -45 -2 2 10 11 18 21
18 19 0 47 46 47 77 0 14 5 18 15 14 8 -3 15 -1 15 3 0 5 9 7 20 4 12 -3 20
-14 20 -27z m278 22 c-6 -16 -36 -34 -44 -25 -9 9 15 37 33 37 8 0 13 -5 11
-12z m-3553 -8 c3 -5 2 -10 -4 -10 -5 0 -13 5 -16 10 -3 6 -2 10 4 10 5 0 13
-4 16 -10z m2614 -32 c1 -5 -3 -8 -7 -8 -4 0 -8 12 -9 28 -1 23 -1 24 7 7 5
-11 9 -23 9 -27z m-814 22 c-3 -5 -10 -10 -16 -10 -5 0 -9 5 -9 10 0 6 7 10
16 10 8 0 12 -4 9 -10z m695 0 c0 -5 -2 -10 -4 -10 -3 0 -8 5 -11 10 -3 6 -1
10 4 10 6 0 11 -4 11 -10z m1210 0 c-8 -5 -19 -10 -25 -10 -5 0 -3 5 5 10 8 5
20 10 25 10 6 0 3 -5 -5 -10z m1020 -21 c0 -18 -2 -20 -15 -9 -13 11 -13 15
-3 21 18 12 18 12 18 -12z m-4658 -1 c-9 -9 -15 -9 -24 0 -9 9 -7 12 12 12 19
0 21 -3 12 -12z m4728 2 c0 -5 -4 -10 -10 -10 -5 0 -10 5 -10 10 0 6 5 10 10
10 6 0 10 -4 10 -10z m-3275 -10 c-3 -5 -17 -10 -31 -10 -13 0 -24 5 -24 10 0
6 14 10 31 10 17 0 28 -4 24 -10z m-1572 -7 c-7 -2 -21 -2 -30 0 -10 3 -4 5
12 5 17 0 24 -2 18 -5z m412 -2 c3 -5 1 -13 -5 -16 -15 -9 -43 3 -35 15 8 13
32 13 40 1z m-215 -32 c0 -27 -28 -35 -48 -15 -16 16 -16 18 1 31 24 17 47 9
47 -16z m1510 16 c-14 -16 -40 -20 -40 -6 0 10 17 19 39 20 11 1 11 -2 1 -14z
m915 5 c-3 -5 -10 -10 -16 -10 -5 0 -9 5 -9 10 0 6 7 10 16 10 8 0 12 -4 9
-10z m140 0 c-3 -5 -10 -10 -16 -10 -5 0 -9 5 -9 10 0 6 7 10 16 10 8 0 12 -4
9 -10z m-2730 -11 c11 -17 -1 -21 -15 -4 -8 9 -8 15 -2 15 6 0 14 -5 17 -11z
m2791 -26 c-11 -11 -17 4 -9 23 7 18 8 18 11 1 2 -10 1 -21 -2 -24z m-2196 17
c0 -5 -2 -10 -4 -10 -3 0 -8 5 -11 10 -3 6 -1 10 4 10 6 0 11 -4 11 -10z
m2347 -12 c-3 -8 -6 -5 -6 6 -1 11 2 17 5 13 3 -3 4 -12 1 -19z m410 2 c-1
-14 -8 -20 -26 -20 -23 0 -24 1 -6 20 10 11 22 20 26 20 4 0 7 -9 6 -20z
m-1787 0 c0 -5 -7 -10 -15 -10 -8 0 -15 5 -15 10 0 6 7 10 15 10 8 0 15 -4 15
-10z m925 0 c3 -5 1 -10 -4 -10 -6 0 -11 5 -11 10 0 6 2 10 4 10 3 0 8 -4 11
-10z m1060 -11 c-10 -15 -25 -10 -19 6 4 8 10 12 15 9 5 -3 7 -10 4 -15z
m1249 12 c3 -5 -1 -11 -9 -14 -9 -4 -12 -1 -8 9 6 16 10 17 17 5z m159 -10
c34 -18 35 -31 2 -31 -13 0 -28 -8 -34 -17 -7 -13 -13 -15 -21 -7 -11 11 6 78
19 72 3 -2 18 -10 34 -17z m-2283 -1 c0 -5 -2 -10 -4 -10 -3 0 -8 5 -11 10 -3
6 -1 10 4 10 6 0 11 -4 11 -10z m1634 2 c3 -5 -1 -9 -9 -9 -8 0 -15 4 -15 9 0
4 4 8 9 8 6 0 12 -4 15 -8z m846 -2 c0 -5 -4 -10 -9 -10 -6 0 -13 5 -16 10 -3
6 1 10 9 10 9 0 16 -4 16 -10z m-450 -10 c0 -5 -5 -10 -11 -10 -5 0 -7 5 -4
10 3 6 8 10 11 10 2 0 4 -4 4 -10z m-3125 -10 c17 -7 17 -9 3 -9 -10 -1 -18
-8 -18 -16 0 -18 -31 -20 -47 -4 -29 29 15 49 62 29z m418 3 c7 -12 -15 -28
-40 -30 -25 -3 -29 7 -11 25 13 13 44 16 51 5z m-1353 -24 c14 -25 11 -30 -17
-23 -13 4 -21 13 -20 25 2 25 24 24 37 -2z m175 12 c6 -11 -26 -31 -49 -31
-24 0 -19 19 7 30 29 12 35 12 42 1z m4045 -4 c0 -8 -14 -12 -40 -12 -26 0
-40 4 -40 12 0 8 14 13 40 13 26 0 40 -5 40 -13z m-3435 -7 c4 -6 -5 -10 -19
-10 -14 0 -26 5 -26 10 0 6 9 10 19 10 11 0 23 -4 26 -10z m3315 0 c8 -5 11
-12 8 -16 -10 -9 -38 3 -38 16 0 12 10 13 30 0z m-3080 -10 c-8 -5 -22 -9 -30
-9 -10 0 -8 3 5 9 27 12 43 12 25 0z m1940 0 c0 -5 -5 -10 -11 -10 -5 0 -7 5
-4 10 3 6 8 10 11 10 2 0 4 -4 4 -10z m-3201 -13 c14 -17 4 -27 -26 -27 -35 0
-28 35 8 39 4 1 12 -5 18 -12z m3067 -16 c-9 -13 -46 -15 -46 -2 0 16 18 22
23 9 3 -7 6 -4 6 7 1 14 4 16 12 8 6 -6 8 -16 5 -22z m-936 9 c0 -5 -5 -10
-11 -10 -5 0 -7 5 -4 10 3 6 8 10 11 10 2 0 4 -4 4 -10z m2145 0 c3 -5 -1 -10
-10 -10 -9 0 -13 5 -10 10 3 6 8 10 10 10 2 0 7 -4 10 -10z m-1375 -11 c0 -5
-6 -9 -12 -10 -7 0 -4 -4 7 -9 32 -13 -5 -23 -38 -11 -43 17 -32 38 21 38 12
0 22 -3 22 -8z m-1545 -9 c3 -5 1 -10 -4 -10 -6 0 -11 5 -11 10 0 6 2 10 4 10
3 0 8 -4 11 -10z m441 -38 c-9 -8 -26 10 -26 26 1 15 2 15 15 -2 8 -11 13 -21
11 -24z m559 29 c3 -5 1 -12 -5 -16 -5 -3 -10 1 -10 9 0 18 6 21 15 7z m831 0
c-7 -11 -46 -21 -46 -12 0 13 13 21 32 21 11 0 17 -4 14 -9z m-534 -23 c-7 -7
-12 -8 -12 -2 0 14 12 26 19 19 2 -3 -1 -11 -7 -17z m1733 -4 c27 -23 28 -24
7 -19 -13 4 -33 16 -43 26 -29 29 1 23 36 -7z m80 16 c3 -5 1 -10 -4 -10 -6 0
-11 5 -11 10 0 6 2 10 4 10 3 0 8 -4 11 -10z m-3147 -21 c13 -20 12 -21 -12
-15 -15 4 -26 2 -26 -4 0 -5 -10 -10 -22 -9 l-23 0 23 9 c12 5 22 16 22 25 0
22 23 18 38 -6z m1471 -5 c2 -2 2 -6 0 -9 -8 -7 -49 7 -49 17 0 8 38 2 49 -8z
m-2449 -4 c0 -13 -20 -13 -40 0 -12 8 -9 10 13 10 15 0 27 -4 27 -10z m2720 0
c-8 -5 -24 -10 -35 -10 -17 0 -17 2 -5 10 8 5 24 10 35 10 17 0 17 -2 5 -10z
m-2996 -19 c4 -5 0 -11 -6 -14 -18 -5 -48 3 -48 14 0 12 47 12 54 0z m1333
-23 c15 -24 15 -28 -3 -55 l-19 -28 -3 55 c-2 34 -6 49 -11 41 -5 -8 -14 -10
-20 -7 -6 4 -9 12 -5 17 11 18 45 5 61 -23z m943 22 c0 -5 -2 -10 -4 -10 -3 0
-8 5 -11 10 -3 6 -1 10 4 10 6 0 11 -4 11 -10z m-1290 -10 c0 -5 -10 -10 -22
-10 -19 0 -20 2 -8 10 19 13 30 13 30 0z m774 -5 c-4 -8 -10 -12 -15 -9 -14 8
-10 24 6 24 9 0 12 -6 9 -15z m1086 5 c-20 -13 -33 -13 -25 0 3 6 14 10 23 10
15 0 15 -2 2 -10z m418 -9 c3 -8 -1 -12 -9 -9 -7 2 -15 10 -17 17 -3 8 1 12 9
9 7 -2 15 -10 17 -17z m1322 4 c0 -8 -4 -15 -10 -15 -5 0 -10 7 -10 15 0 8 5
15 10 15 6 0 10 -7 10 -15z m290 5 c35 -19 46 -92 16 -112 -17 -12 -68 -10
-61 2 12 20 -6 30 -27 15 -45 -31 -67 38 -26 82 23 24 66 30 98 13z m-2965
-20 c3 -5 -1 -10 -9 -10 -9 0 -16 5 -16 10 0 6 4 10 9 10 6 0 13 -4 16 -10z
m-1610 -10 c8 -13 -35 -13 -55 0 -11 7 -7 10 17 10 17 0 35 -4 38 -10z m1869
1 c3 -5 -1 -14 -9 -21 -11 -9 -14 -8 -12 9 1 22 12 28 21 12z m723 3 c-3 -3
-12 -4 -19 -1 -8 3 -5 6 6 6 11 1 17 -2 13 -5z m1187 -1 c-5 -5 -12 -12 -16
-18 -4 -6 -8 -2 -8 8 0 9 7 17 17 17 9 0 12 -3 7 -7z m-2286 -15 c19 -19 14
-30 -8 -18 -11 6 -20 15 -20 20 0 14 14 12 28 -2z m1335 5 c-7 -2 -19 -2 -25
0 -7 3 -2 5 12 5 14 0 19 -2 13 -5z m-1487 -18 c24 -12 26 -15 8 -15 -11 0
-29 7 -40 15 -25 19 -4 19 32 0z m-1514 -8 c9 -7 20 -25 23 -39 6 -22 2 -27
-26 -37 -56 -19 -67 -13 -83 51 -5 20 -2 28 11 31 33 9 58 6 75 -6z m208 -2
c0 -8 -2 -15 -4 -15 -2 0 -6 7 -10 15 -3 8 -1 15 4 15 6 0 10 -7 10 -15z
m2564 6 c3 -5 -4 -11 -17 -15 -35 -9 -40 -7 -27 9 14 17 36 20 44 6z m-2644
-16 c10 -12 10 -19 2 -27 -16 -16 -42 -2 -42 22 0 24 22 26 40 5z m1773 -10
c-3 -9 -8 -14 -10 -11 -3 3 -2 9 2 15 9 16 15 13 8 -4z m672 -4 c3 -10 1 -30
-4 -43 -7 -17 -6 -29 2 -37 8 -8 5 -11 -11 -11 -24 0 -28 10 -10 28 8 8 8 15
-2 27 -7 9 -8 15 -2 15 5 0 8 9 5 20 -7 25 14 27 22 1z m300 -1 c3 -5 -3 -10
-15 -10 -12 0 -18 5 -15 10 3 6 10 10 15 10 5 0 12 -4 15 -10z m-2527 -6 c12
-4 22 -10 22 -15 0 -14 -34 -10 -56 6 -21 16 -8 20 34 9z m82 -4 c0 -5 -5 -10
-11 -10 -5 0 -7 5 -4 10 3 6 8 10 11 10 2 0 4 -4 4 -10z m3528 -1 c-2 -6 -8
-10 -13 -10 -5 0 -11 4 -13 10 -2 6 4 11 13 11 9 0 15 -5 13 -11z m-1868 -13
c0 -11 -19 -15 -25 -6 -3 5 1 10 9 10 9 0 16 -2 16 -4z m-360 -16 c0 -5 -7
-10 -15 -10 -8 0 -15 5 -15 10 0 6 7 10 15 10 8 0 15 -4 15 -10z m2158 -2 c-2
-6 -11 -12 -20 -14 -11 -1 -15 3 -11 12 6 17 36 19 31 2z m-3708 -27 c0 -39
-20 -53 -83 -56 -44 -3 -55 0 -65 16 -11 17 -9 21 13 29 34 13 45 13 45 -1 0
-6 14 1 31 15 41 34 59 34 59 -3z m116 18 c3 -6 1 -16 -4 -21 -13 -13 -45 8
-36 23 7 12 31 11 40 -2z m1304 1 c0 -5 -4 -10 -10 -10 -5 0 -10 5 -10 10 0 6
5 10 10 10 6 0 10 -4 10 -10z m-1013 -15 c7 -20 0 -27 -20 -19 -9 3 -13 12
-10 20 7 19 22 18 30 -1z m2713 5 c0 -5 -2 -10 -4 -10 -3 0 -8 5 -11 10 -3 6
-1 10 4 10 6 0 11 -4 11 -10z m475 0 c-3 -5 -16 -10 -28 -10 -18 0 -19 2 -7
10 20 13 43 13 35 0z m4136 -17 c2 -24 2 -25 6 -5 3 15 11 22 28 22 27 0 35
-9 45 -56 7 -29 4 -37 -17 -54 -14 -11 -36 -20 -49 -20 -23 0 -24 3 -20 43 l5
42 -11 -37 c-6 -21 -15 -38 -19 -38 -12 0 -27 24 -33 56 -6 27 -3 35 20 53 35
28 44 27 45 -6z m-6274 11 c-3 -3 -12 -4 -19 -1 -8 3 -5 6 6 6 11 1 17 -2 13
-5z m2383 -22 c0 -15 -2 -15 -10 -2 -13 20 -13 33 0 25 6 -3 10 -14 10 -23z
m-40 3 c0 -8 -7 -15 -15 -15 -16 0 -20 12 -8 23 11 12 23 8 23 -8z m184 9 c23
-9 22 -67 0 -62 -23 4 -39 32 -31 52 7 18 9 19 31 10z m-1284 -14 c0 -5 -7
-10 -15 -10 -8 0 -15 5 -15 10 0 6 7 10 15 10 8 0 15 -4 15 -10z m1600 0 c0
-5 -7 -10 -15 -10 -8 0 -15 5 -15 10 0 6 7 10 15 10 8 0 15 -4 15 -10z m-379
-10 c5 0 9 -5 9 -11 0 -15 -43 -7 -48 10 -3 10 0 12 12 8 10 -4 22 -7 27 -7z
m179 -6 c0 -8 -5 -12 -10 -9 -6 4 -8 11 -5 16 9 14 15 11 15 -7z m-2760 -4 c0
-5 -4 -10 -9 -10 -6 0 -13 5 -16 10 -3 6 1 10 9 10 9 0 16 -4 16 -10z m97 -6
c-3 -3 -12 -4 -19 -1 -8 3 -5 6 6 6 11 1 17 -2 13 -5z m-1257 -14 c0 -13 -48
-36 -56 -27 -4 3 -4 13 -1 22 7 17 57 21 57 5z m939 -35 c-1 -17 -2 -17 -6 -2
-2 9 -9 15 -14 12 -10 -7 -12 18 -2 28 9 10 23 -14 22 -38z m278 -11 c-3 -3
-12 -4 -19 -1 -8 3 -5 6 6 6 11 1 17 -2 13 -5z m333 -4 c0 -5 -4 -10 -10 -10
-5 0 -10 5 -10 10 0 6 5 10 10 10 6 0 10 -4 10 -10z m971 -13 c-13 -13 -26 -3
-16 12 3 6 11 8 17 5 6 -4 6 -10 -1 -17z m1165 -5 c-9 -9 -37 8 -31 18 5 8 11
7 21 -1 8 -6 12 -14 10 -17z m-3916 -2 c0 -11 -7 -20 -15 -20 -8 0 -15 -4 -15
-10 0 -5 -4 -10 -10 -10 -14 0 -13 33 2 48 18 18 38 14 38 -8z m4970 10 c0 -5
-9 -10 -21 -10 -11 0 -17 5 -14 10 3 6 13 10 21 10 8 0 14 -4 14 -10z m-1694
-27 c-8 -8 -36 5 -36 17 0 7 6 7 21 0 11 -7 18 -14 15 -17z m579 17 c3 -5 1
-10 -4 -10 -6 0 -11 5 -11 10 0 6 2 10 4 10 3 0 8 -4 11 -10z m500 -10 c3 -5
-1 -10 -10 -10 -9 0 -13 5 -10 10 3 6 8 10 10 10 2 0 7 -4 10 -10z m-2625 -4
c0 -11 -19 -15 -25 -6 -3 5 1 10 9 10 9 0 16 -2 16 -4z m-1140 -26 c0 -11 -4
-20 -10 -20 -5 0 -10 9 -10 20 0 11 5 20 10 20 6 0 10 -9 10 -20z m2100 5 c0
-8 -7 -15 -15 -15 -16 0 -20 12 -8 23 11 12 23 8 23 -8z m1660 -15 c0 -15 -7
-20 -25 -20 -40 0 -25 27 23 39 1 1 2 -8 2 -19z m-3930 -11 c0 -6 -4 -7 -10
-4 -5 3 -10 11 -10 16 0 6 5 7 10 4 6 -3 10 -11 10 -16z m2150 -4 c0 -16 -27
-28 -35 -14 -4 5 -1 8 7 7 8 -2 12 4 10 16 -2 11 1 15 7 11 6 -3 11 -12 11
-20z m260 5 c0 -5 -2 -10 -4 -10 -3 0 -8 5 -11 10 -3 6 -1 10 4 10 6 0 11 -4
11 -10z m2055 -30 c3 -5 1 -10 -4 -10 -6 0 -11 5 -11 10 0 6 2 10 4 10 3 0 8
-4 11 -10z m-3655 -22 c0 -12 -1 -19 -3 -17 -1 2 -9 12 -16 22 -12 14 -11 17
3 17 10 0 16 -8 16 -22z m350 -18 c0 -5 -4 -10 -10 -10 -5 0 -10 5 -10 10 0 6
5 10 10 10 6 0 10 -4 10 -10z m-300 -14 c0 -3 -4 -8 -10 -11 -5 -3 -10 -1 -10
4 0 6 5 11 10 11 6 0 10 -2 10 -4z m923 -31 c-6 -17 -25 -15 -31 3 -2 7 5 12
17 12 14 0 19 -5 14 -15z m-1998 -5 c-3 -5 -12 -10 -18 -10 -7 0 -6 4 3 10 19
12 23 12 15 0z m52 -22 c-3 -8 -6 -5 -6 6 -1 11 2 17 5 13 3 -3 4 -12 1 -19z
m1761 5 c-2 -10 -13 -19 -26 -21 -17 -3 -22 2 -22 17 0 16 6 21 26 21 19 0 25
-5 22 -17z m333 -12 c-6 -20 -14 -27 -39 -29 -18 -2 -32 1 -32 7 0 6 -13 11
-30 11 -23 0 -30 5 -30 19 0 18 7 20 69 19 l69 0 -7 -27z m-1970 -4 c-11 -11
-41 -3 -41 11 0 5 12 7 26 4 17 -3 22 -8 15 -15z m3119 -9 c0 -27 -34 -19 -38
9 -3 17 1 20 17 16 12 -3 21 -14 21 -25z m-380 8 c0 -11 -19 -15 -25 -6 -3 5
1 10 9 10 9 0 16 -2 16 -4z m503 -30 c4 -10 -2 -13 -18 -12 -17 1 -21 4 -13
14 14 16 25 15 31 -2z m-2273 -16 c0 -5 -4 -10 -9 -10 -6 0 -13 5 -16 10 -3 6
1 10 9 10 9 0 16 -4 16 -10z m767 -5 c7 -19 5 -20 -29 -29 -23 -5 -28 -3 -28
12 0 10 3 22 7 25 12 13 44 7 50 -8z m-402 -15 c3 -5 -1 -10 -9 -10 -8 0 -18
5 -21 10 -3 6 1 10 9 10 8 0 18 -4 21 -10z m505 0 c0 -5 -5 -10 -11 -10 -5 0
-7 5 -4 10 3 6 8 10 11 10 2 0 4 -4 4 -10z m1515 -20 c3 -5 1 -10 -4 -10 -6 0
-11 5 -11 10 0 6 2 10 4 10 3 0 8 -4 11 -10z m-2360 -10 c-3 -5 -11 -10 -16
-10 -6 0 -7 5 -4 10 3 6 11 10 16 10 6 0 7 -4 4 -10z m211 -9 c-3 -5 -18 -11
-33 -14 -26 -5 -26 -4 -8 9 21 15 49 19 41 5z m-933 -31 c8 0 7 -4 -1 -12 -9
-9 -16 -8 -30 6 -16 18 -16 19 1 12 10 -3 24 -6 30 -6z m1952 -10 c3 -5 -1
-10 -9 -10 -8 0 -18 5 -21 10 -3 6 1 10 9 10 8 0 18 -4 21 -10z m-2208 -6 c-3
-3 -12 -4 -19 -1 -8 3 -5 6 6 6 11 1 17 -2 13 -5z m173 -14 c0 -11 -7 -20 -15
-20 -17 0 -18 2 -9 24 9 23 24 20 24 -4z m2660 10 c0 -5 -2 -10 -4 -10 -3 0
-8 5 -11 10 -3 6 -1 10 4 10 6 0 11 -4 11 -10z m-1608 -12 c-9 -9 -15 -9 -24
0 -9 9 -7 12 12 12 19 0 21 -3 12 -12z m-115 -4 c-3 -3 -12 -4 -19 -1 -8 3 -5
6 6 6 11 1 17 -2 13 -5z m-977 -110 c0 -8 -4 -12 -10 -9 -5 3 -10 10 -10 16 0
5 5 9 10 9 6 0 10 -7 10 -16z m1510 -34 c0 -14 -42 -50 -52 -44 -15 10 -8 24
12 24 14 0 20 7 20 21 0 11 5 17 10 14 6 -3 10 -10 10 -15z m930 -39 c0 -5 -9
-7 -20 -4 -11 3 -20 7 -20 9 0 2 9 4 20 4 11 0 20 -4 20 -9z m50 -66 c0 -9 -6
-12 -15 -9 -8 4 -12 10 -9 15 8 14 24 10 24 -6z m-210 -16 c0 -5 -4 -9 -10 -9
-5 0 -10 7 -10 16 0 8 5 12 10 9 6 -3 10 -10 10 -16z m4207 -1 c22 -21 23 -21
43 -3 23 21 27 9 5 -15 -12 -13 -13 -23 -6 -43 7 -19 6 -28 -4 -37 -18 -15
-85 51 -85 84 0 41 14 45 47 14z m-3947 -58 c0 -5 -4 -10 -10 -10 -5 0 -10 5
-10 10 0 6 5 10 10 10 6 0 10 -4 10 -10z m539 -70 c4 0 12 5 19 12 8 8 12 8
12 1 0 -6 -7 -16 -16 -24 -13 -10 -17 -10 -25 2 -5 8 -8 21 -8 29 1 11 3 10 6
-2 2 -10 8 -18 12 -18z m5588 -80 c0 -56 -13 -60 -15 -5 -1 25 2 45 7 45 4 0
8 -18 8 -40z m265 -42 c-14 -14 -42 2 -42 24 0 11 8 22 20 25 11 3 21 13 22
22 1 9 3 -1 5 -23 3 -21 0 -43 -5 -48z m428 27 c0 -16 -4 -35 -8 -42 -4 -6 -7
13 -7 42 0 29 3 48 7 42 4 -7 8 -25 8 -42z m-6100 30 c0 -8 -7 -15 -16 -15
-14 0 -14 3 -4 15 7 8 14 15 16 15 2 0 4 -7 4 -15z m5314 6 c4 -5 -3 -7 -14
-4 -26 7 -26 -9 0 -25 11 -7 20 -16 20 -21 0 -15 -33 -22 -44 -11 -8 8 -6 9 7
5 11 -5 17 -2 17 8 0 9 -9 19 -21 22 -16 5 -18 10 -8 21 13 16 35 18 43 5z
m454 -31 c14 -39 8 -38 -12 2 -18 36 -19 41 -7 34 5 -3 14 -19 19 -36z m237
-9 c0 -27 -3 -47 -7 -44 -14 8 -8 94 6 93 1 0 1 -22 1 -49z m-546 11 c0 -11
-3 -12 -6 -4 -2 6 -9 12 -14 12 -6 0 -8 -4 -5 -8 2 -4 1 -14 -5 -22 -7 -12 -9
-11 -9 6 0 23 19 46 32 38 4 -3 8 -13 7 -22z m97 -6 c0 -19 -4 -32 -8 -30 -4
3 -8 18 -8 35 0 16 4 29 8 29 4 0 8 -15 8 -34z m310 0 c0 -19 -4 -32 -8 -30
-4 3 -8 18 -8 35 0 16 4 29 8 29 4 0 8 -15 8 -34z m181 16 c-18 -4 -18 -4 0
-17 14 -11 16 -16 6 -26 -11 -11 -15 -11 -25 0 -11 10 -10 11 5 6 9 -4 17 -4
17 0 0 4 -8 14 -17 21 -15 12 -16 15 -3 23 8 5 19 7 25 3 6 -4 2 -8 -8 -10z
m-669 -9 c2 -7 -1 -13 -8 -13 -6 0 -8 5 -5 10 3 6 2 10 -3 10 -18 0 -21 -29
-4 -39 19 -12 12 -14 -12 -5 -16 6 -22 35 -9 48 10 10 36 3 41 -11z m130 10
c-10 -2 -18 -14 -18 -25 0 -15 4 -18 18 -13 13 5 14 3 5 -6 -14 -14 -33 -3
-33 20 0 22 9 31 29 30 13 -1 13 -2 -1 -6z m112 -8 c0 -8 -5 -15 -11 -15 -5 0
-7 5 -4 10 3 6 1 10 -4 10 -15 0 -14 -37 2 -43 7 -4 8 -6 1 -6 -18 -1 -37 27
-30 44 7 20 46 20 46 0z m210 5 c0 -5 -7 -7 -15 -4 -11 4 -15 0 -15 -16 0 -17
4 -21 18 -15 13 5 14 3 5 -6 -16 -16 -33 -2 -33 27 0 17 5 24 20 24 11 0 20
-4 20 -10z m100 -14 c0 -32 -18 -43 -37 -23 -20 20 -10 47 17 47 15 0 20 -7
20 -24z m30 14 c0 -5 -4 -10 -10 -10 -5 0 -10 5 -10 10 0 6 5 10 10 10 6 0 10
-4 10 -10z m187 -27 c-3 -10 -5 -4 -5 12 0 17 2 24 5 18 2 -7 2 -21 0 -30z
m30 0 c-3 -10 -5 -4 -5 12 0 17 2 24 5 18 2 -7 2 -21 0 -30z m34 30 c0 -5 2
-16 4 -25 2 -10 0 -18 -5 -18 -4 0 -10 11 -12 25 -3 14 -1 25 3 25 5 0 9 -3
10 -7z m-6651 -23 c0 -5 -7 -7 -15 -4 -8 4 -12 10 -9 15 6 11 24 2 24 -11z
m6176 -6 c-4 -9 -9 -15 -11 -12 -3 3 -3 13 1 22 4 9 9 15 11 12 3 -3 3 -13 -1
-22z m-6601 6 c3 -5 -1 -10 -9 -10 -9 0 -16 5 -16 10 0 6 4 10 9 10 6 0 13 -4
16 -10z m6168 -107 c-29 -6 -33 -59 -5 -66 11 -3 9 -5 -8 -6 -23 -1 -25 2 -24
37 1 20 3 38 3 40 1 1 13 1 29 1 23 -2 24 -2 5 -6z m214 -13 c4 -13 3 -13 -6
0 -8 12 -13 12 -22 3 -10 -10 -6 -14 14 -22 18 -7 25 -15 21 -26 -7 -17 -54
-21 -54 -4 0 6 9 8 20 4 11 -3 20 -2 20 4 0 5 -9 13 -20 16 -31 10 -24 49 9
43 8 -2 16 -10 18 -18z m253 -20 c0 -36 -2 -40 -25 -40 -20 0 -25 5 -25 24 0
14 4 27 9 30 4 3 6 -6 3 -19 -2 -15 0 -25 7 -25 6 0 12 6 12 13 1 6 2 17 4 22
1 6 3 16 3 23 4 28 12 9 12 -28z m58 -9 c-2 -18 -9 -26 -23 -26 -15 0 -20 7
-21 30 -1 28 -1 28 3 3 2 -16 9 -28 14 -28 17 0 23 32 9 54 -12 19 -12 20 4 7
10 -8 16 -25 14 -40z m42 9 c0 -22 -2 -40 -4 -40 -2 0 -6 18 -8 40 -2 22 0 40
4 40 5 0 8 -18 8 -40z m110 0 c0 -22 -2 -40 -4 -40 -2 0 -6 18 -8 40 -2 22 0
40 4 40 5 0 8 -18 8 -40z m60 0 c0 -22 -2 -40 -4 -40 -2 0 -6 18 -8 40 -2 22
0 40 4 40 5 0 8 -18 8 -40z m72 -35 c-8 -13 -20 45 -13 65 3 9 8 1 12 -20 4
-19 4 -39 1 -45z m63 31 c0 -24 -3 -42 -7 -39 -10 5 -10 45 -2 67 9 23 10 21
9 -28z m73 19 c2 -18 2 -18 -8 -2 -17 27 -30 20 -30 -18 0 -19 -4 -35 -10 -35
-11 0 -14 63 -3 74 14 13 48 1 51 -19z m472 -25 c0 -14 -4 -30 -8 -37 -4 -6
-7 11 -7 37 0 26 3 43 7 37 4 -7 8 -23 8 -37z m-192 3 c0 -34 -2 -35 -11 -16
-5 12 -7 29 -4 37 10 26 15 18 15 -21z m156 -3 c1 -16 -2 -30 -5 -30 -8 0 -17
58 -11 65 9 9 15 -4 16 -35z m-1314 0 c0 -16 -5 -30 -11 -30 -7 0 -18 -8 -25
-17 -12 -16 -13 -13 -14 23 0 45 5 54 32 54 13 0 18 -8 18 -30z m30 0 c0 -39
-15 -39 -16 0 -1 17 3 30 7 30 5 0 9 -13 9 -30z m56 19 c4 -8 0 -9 -15 -4 -17
5 -21 2 -21 -15 0 -17 4 -20 21 -15 15 5 19 4 15 -4 -18 -29 -55 1 -42 34 6
18 32 20 42 4z m129 -9 c8 -24 -1 -40 -21 -40 -17 0 -28 24 -20 45 8 22 34 18
41 -5z m36 -30 c5 0 14 10 19 23 8 21 9 21 9 -5 1 -23 -3 -28 -24 -28 -22 0
-25 4 -24 33 2 30 2 30 6 5 2 -16 9 -28 14 -28z m51 20 c-2 -16 -6 -30 -8 -30
-2 0 -4 14 -4 30 0 17 4 30 8 30 5 0 7 -13 4 -30z m38 -7 c0 -32 -12 -23 -16
12 -1 14 2 23 7 20 5 -4 9 -18 9 -32z m595 26 c4 -6 4 -13 0 -17 -3 -3 -10 0
-15 8 -6 8 -10 12 -11 8 -5 -26 -3 -34 11 -40 12 -5 12 -7 -3 -7 -20 -1 -32
22 -23 44 6 17 32 20 41 4z m37 -1 c-5 -7 -12 -22 -15 -33 -3 -13 -5 -9 -6 13
-1 23 3 32 15 32 12 0 14 -3 6 -12z m63 2 c3 -6 -1 -7 -9 -4 -9 3 -16 1 -16
-6 0 -6 -5 -8 -10 -5 -6 4 -8 11 -5 16 8 12 32 12 40 -1z m35 -20 c0 -16 -4
-30 -8 -30 -4 0 -7 12 -6 28 3 32 3 32 9 32 3 0 5 -13 5 -30z m46 18 c4 -6 3
-8 -4 -4 -5 3 -12 0 -15 -6 -2 -7 -8 -10 -12 -6 -8 8 2 28 15 28 5 0 12 -5 16
-12z m100 -6 c1 -7 0 -8 -3 -2 -8 17 -23 11 -23 -9 0 -11 8 -22 18 -24 13 -4
12 -5 -4 -6 -26 -1 -39 26 -23 46 13 15 32 13 35 -5z m34 -12 c0 -16 -4 -30
-8 -30 -4 0 -7 12 -6 28 3 32 3 32 9 32 3 0 5 -13 5 -30z m30 0 c0 -16 -2 -30
-4 -30 -2 0 -6 14 -8 30 -3 17 -1 30 4 30 4 0 8 -13 8 -30z m-560 0 c0 -5 -5
-10 -11 -10 -5 0 -7 5 -4 10 3 6 8 10 11 10 2 0 4 -4 4 -10z m-9330 -16 c0 -8
-4 -12 -10 -9 -5 3 -10 10 -10 16 0 5 5 9 10 9 6 0 10 -7 10 -16z m9645 -5
c-4 -5 -14 -8 -23 -8 -15 1 -15 2 1 6 9 2 14 9 11 15 -4 7 -2 8 5 4 6 -4 9
-12 6 -17z m90 11 c9 -15 -24 -25 -38 -11 -9 9 -8 11 7 5 13 -5 17 -4 12 4 -4
7 -3 12 3 12 5 0 13 -5 16 -10z m-6567 -31 c-2 -6 -8 -10 -13 -10 -5 0 -11 4
-13 10 -2 6 4 11 13 11 9 0 15 -5 13 -11z m6005 4 c-7 -2 -21 -2 -30 0 -10 3
-4 5 12 5 17 0 24 -2 18 -5z m-15068 -60 c-11 -2 -25 -11 -31 -18 -8 -10 -19
-12 -40 -5 -16 4 -21 9 -11 9 9 1 17 4 17 9 0 4 19 8 43 9 23 0 33 -1 22 -4z
m7805 -75 c0 -4 -7 -8 -15 -8 -8 0 -15 4 -15 8 0 5 7 9 15 9 8 0 15 -4 15 -9z
m60 -28 c0 -5 -2 -10 -4 -10 -3 0 -8 5 -11 10 -3 6 -1 10 4 10 6 0 11 -4 11
-10z m620 -60 c0 -5 -4 -10 -10 -10 -5 0 -10 5 -10 10 0 6 5 10 10 10 6 0 10
-4 10 -10z"/>
<path d="M64 9129 c-2 -4 5 -14 16 -24 17 -16 21 -16 35 -2 8 9 15 19 15 24 0
9 -60 11 -66 2z"/>
<path d="M860 9160 c0 -5 5 -10 10 -10 6 0 10 5 10 10 0 6 -4 10 -10 10 -5 0
-10 -4 -10 -10z"/>
<path d="M457 9153 c-6 -10 -2 -72 6 -79 3 -3 10 4 17 15 13 24 35 28 44 6 5
-15 77 -22 75 -7 -3 20 2 32 12 26 8 -4 7 -9 -2 -15 -11 -6 -10 -9 4 -15 9 -3
24 -4 32 0 10 4 15 -1 15 -14 0 -11 5 -20 10 -20 6 0 10 7 10 15 0 8 7 15 15
15 8 0 15 5 15 12 0 9 3 9 12 0 7 -7 21 -12 33 -12 16 0 17 2 5 10 -9 6 -10
10 -3 10 6 0 14 -4 17 -9 3 -5 28 -9 55 -9 43 -1 50 2 54 21 l4 22 2 -22 c1
-27 31 -32 31 -5 1 16 1 16 14 0 7 -10 22 -18 32 -17 12 0 14 3 6 6 -10 4 -9
8 4 17 9 7 14 18 10 24 -10 16 -73 15 -79 0 -4 -10 -6 -10 -6 0 -1 6 -12 12
-25 12 -14 0 -28 5 -32 11 -5 8 -8 8 -14 0 -4 -7 -27 -12 -51 -13 -24 -1 -50
-6 -56 -11 -9 -6 -13 -6 -13 1 0 8 -32 11 -95 10 -62 -1 -99 2 -107 10 -13 13
-44 16 -51 5z m400 -55 c-3 -7 -5 -2 -5 12 0 14 2 19 5 13 2 -7 2 -19 0 -25z
m-157 12 c0 -5 -4 -10 -10 -10 -5 0 -10 5 -10 10 0 6 5 10 10 10 6 0 10 -4 10
-10z m118 1 c10 -6 9 -10 -7 -14 -14 -3 -21 0 -21 9 0 16 9 18 28 5z"/>
<path d="M380 9114 c-14 -7 -35 -14 -47 -14 -24 0 -28 -7 -15 -27 5 -8 19 -4
50 14 23 14 42 29 42 34 0 5 -1 9 -2 8 -2 -1 -14 -7 -28 -15z"/>
<path d="M1365 9160 c-3 -5 1 -10 9 -10 9 0 16 5 16 10 0 6 -4 10 -9 10 -6 0
-13 -4 -16 -10z"/>
<path d="M1144 9146 c-9 -24 10 -68 39 -90 l27 -20 28 21 c17 13 28 31 30 51
3 31 -10 43 -23 22 -10 -16 -40 -11 -69 11 -22 18 -27 18 -32 5z"/>
<path d="M1308 9120 c-3 -39 -3 -40 27 -39 17 1 22 3 13 6 -13 3 -18 15 -18
39 0 47 -17 43 -22 -6z"/>
<path d="M1387 9146 c-9 -7 -17 -24 -17 -38 0 -20 5 -25 28 -26 26 0 28 2 24
34 -5 41 -11 46 -35 30z"/>
<path d="M1640 9162 c0 -4 -12 -8 -27 -7 -34 0 -44 -30 -14 -40 12 -3 21 -11
21 -17 0 -7 -5 -6 -14 1 -8 7 -17 8 -20 3 -9 -15 5 -22 41 -22 26 0 33 4 33
20 0 11 4 20 9 20 5 0 7 -9 4 -20 -4 -14 0 -20 11 -20 11 0 15 5 10 13 -6 10
-4 10 7 0 18 -18 49 -16 49 2 0 8 5 15 10 15 6 0 10 -7 10 -15 0 -8 5 -15 10
-15 6 0 10 6 10 13 0 9 3 8 9 -2 12 -19 31 -5 31 23 0 19 -5 22 -32 23 -18 0
-36 -5 -40 -11 -5 -8 -8 -7 -8 2 0 18 -38 15 -49 -5 -10 -17 -10 -17 -11 0 0
9 -7 17 -15 17 -8 0 -15 7 -15 15 0 8 -4 15 -10 15 -5 0 -10 -4 -10 -8z m-10
-32 c8 -5 12 -11 10 -14 -3 -2 -14 2 -24 10 -22 15 -10 19 14 4z m110 -20 c0
-5 -4 -10 -10 -10 -5 0 -10 5 -10 10 0 6 5 10 10 10 6 0 10 -4 10 -10z"/>
<path d="M4688 8513 c7 -3 16 -2 19 1 4 3 -2 6 -13 5 -11 0 -14 -3 -6 -6z"/>
<path d="M3747 8232 c-3 -4 -3 -19 0 -34 5 -27 42 -48 84 -48 9 0 20 -6 22
-12 4 -10 6 -10 6 0 1 7 6 10 11 7 6 -3 10 0 10 9 0 25 -12 46 -26 46 -8 0
-14 4 -14 8 0 8 -58 32 -78 32 -6 0 -13 -3 -15 -8z"/>
<path d="M3617 8194 c6 -16 19 -18 27 -5 3 5 -3 11 -13 14 -14 3 -18 1 -14 -9z"/>
<path d="M3710 8193 c-33 -10 -60 -27 -60 -36 0 -5 12 -2 26 8 14 9 31 14 38
12 7 -3 13 1 13 9 0 8 -1 14 -1 13 -1 0 -8 -3 -16 -6z"/>
<path d="M3680 8100 c0 -5 7 -10 15 -10 8 0 15 5 15 10 0 6 -7 10 -15 10 -8 0
-15 -4 -15 -10z"/>
<path d="M2859 8034 l-20 -21 24 2 c30 4 67 23 67 34 0 17 -51 6 -71 -15z"/>
<path d="M2790 7975 c-7 -9 -8 -15 -2 -15 5 0 12 7 16 15 3 8 4 15 2 15 -2 0
-9 -7 -16 -15z"/>
<path d="M2760 7929 c0 -5 5 -7 10 -4 6 3 10 8 10 11 0 2 -4 4 -10 4 -5 0 -10
-5 -10 -11z"/>
<path d="M3163 7933 c9 -2 25 -2 35 0 9 3 1 5 -18 5 -19 0 -27 -2 -17 -5z"/>
<path d="M2791 7914 c0 -11 3 -14 6 -6 3 7 2 16 -1 19 -3 4 -6 -2 -5 -13z"/>
<path d="M3250 7926 c0 -2 9 -6 20 -9 11 -3 18 -1 14 4 -5 9 -34 13 -34 5z"/>
<path d="M3448 7893 c7 -3 16 -2 19 1 4 3 -2 6 -13 5 -11 0 -14 -3 -6 -6z"/>
<path d="M2677 7837 c3 -5 -1 -13 -8 -18 -8 -5 -9 -9 -3 -9 6 0 18 8 27 18 15
16 15 18 -3 18 -10 0 -16 -4 -13 -9z"/>
<path d="M4068 7803 c7 -3 16 -2 19 1 4 3 -2 6 -13 5 -11 0 -14 -3 -6 -6z"/>
<path d="M6783 7163 c9 -2 25 -2 35 0 9 3 1 5 -18 5 -19 0 -27 -2 -17 -5z"/>
<path d="M4840 8490 c-8 -5 -10 -10 -5 -10 6 0 17 5 25 10 8 5 11 10 5 10 -5
0 -17 -5 -25 -10z"/>
<path d="M4245 7270 c28 -5 68 -8 90 -8 35 1 33 2 -15 8 -30 5 -71 8 -90 8
-28 -1 -25 -2 15 -8z"/>
<path d="M4408 7253 c18 -2 45 -2 60 0 15 2 0 4 -33 4 -33 0 -45 -2 -27 -4z"/>
<path d="M4528 7243 c12 -2 32 -2 45 0 12 2 2 4 -23 4 -25 0 -35 -2 -22 -4z"/>
<path d="M4618 7233 c12 -2 30 -2 40 0 9 3 -1 5 -23 4 -22 0 -30 -2 -17 -4z"/>
<path d="M4713 7223 c9 -2 25 -2 35 0 9 3 1 5 -18 5 -19 0 -27 -2 -17 -5z"/>
<path d="M4798 7213 c12 -2 30 -2 40 0 9 3 -1 5 -23 4 -22 0 -30 -2 -17 -4z"/>
<path d="M4903 7203 c15 -2 37 -2 50 0 12 2 0 4 -28 4 -27 0 -38 -2 -22 -4z"/>
<path d="M5008 7193 c12 -2 32 -2 45 0 12 2 2 4 -23 4 -25 0 -35 -2 -22 -4z"/>
<path d="M5128 7183 c6 -2 18 -2 25 0 6 3 1 5 -13 5 -14 0 -19 -2 -12 -5z"/>
<path d="M5213 7173 c9 -2 25 -2 35 0 9 3 1 5 -18 5 -19 0 -27 -2 -17 -5z"/>
<path d="M5313 7163 c9 -2 25 -2 35 0 9 3 1 5 -18 5 -19 0 -27 -2 -17 -5z"/>
<path d="M5403 7153 c9 -2 23 -2 30 0 6 3 -1 5 -18 5 -16 0 -22 -2 -12 -5z"/>
<path d="M5488 7143 c6 -2 18 -2 25 0 6 3 1 5 -13 5 -14 0 -19 -2 -12 -5z"/>
<path d="M6583 7143 c9 -2 23 -2 30 0 6 3 -1 5 -18 5 -16 0 -22 -2 -12 -5z"/>
<path d="M5618 7133 c12 -2 32 -2 45 0 12 2 2 4 -23 4 -25 0 -35 -2 -22 -4z"/>
<path d="M6418 7133 c12 -2 32 -2 45 0 12 2 2 4 -23 4 -25 0 -35 -2 -22 -4z"/>
<path d="M5723 7123 c9 -2 23 -2 30 0 6 3 -1 5 -18 5 -16 0 -22 -2 -12 -5z"/>
<path d="M6323 7123 c9 -2 25 -2 35 0 9 3 1 5 -18 5 -19 0 -27 -2 -17 -5z"/>
<path d="M5813 7113 c9 -2 23 -2 30 0 6 3 -1 5 -18 5 -16 0 -22 -2 -12 -5z"/>
<path d="M6140 7110 l-25 -8 28 -1 c15 -1 27 4 27 9 0 6 -1 10 -2 9 -2 -1 -14
-5 -28 -9z"/>
<path d="M6223 7113 c9 -2 25 -2 35 0 9 3 1 5 -18 5 -19 0 -27 -2 -17 -5z"/>
<path d="M5903 7103 c9 -2 25 -2 35 0 9 3 1 5 -18 5 -19 0 -27 -2 -17 -5z"/>
<path d="M6003 7093 c15 -2 39 -2 55 0 15 2 2 4 -28 4 -30 0 -43 -2 -27 -4z"/>
<path d="M6023 6960 c0 -25 2 -35 4 -22 2 12 2 32 0 45 -2 12 -4 2 -4 -23z"/>
<path d="M6750 6918 c0 -16 48 -39 56 -27 3 5 -1 9 -9 9 -8 0 -17 7 -21 15 -7
18 -26 20 -26 3z"/>
<path d="M6033 6780 c0 -30 2 -43 4 -27 2 15 2 39 0 55 -2 15 -4 2 -4 -28z"/>
<path d="M2564 7868 c0 -16 2 -16 18 -1 10 9 18 17 18 17 0 1 -8 2 -18 2 -10
0 -18 -8 -18 -18z"/>
<path d="M2596 7854 c-5 -14 -4 -15 9 -4 17 14 19 20 6 20 -5 0 -12 -7 -15
-16z"/>
<path d="M1768 7553 c6 -2 18 -2 25 0 6 3 1 5 -13 5 -14 0 -19 -2 -12 -5z"/>
<path d="M1898 7543 c7 -3 16 -2 19 1 4 3 -2 6 -13 5 -11 0 -14 -3 -6 -6z"/>
<path d="M7922 4500 c0 -14 2 -19 5 -12 2 6 2 18 0 25 -3 6 -5 1 -5 -13z"/>
<path d="M7103 4363 c9 -2 23 -2 30 0 6 3 -1 5 -18 5 -16 0 -22 -2 -12 -5z"/>
<path d="M6994 4312 c5 -9 53 -8 63 1 3 4 -10 7 -31 7 -20 0 -35 -4 -32 -8z"/>
<path d="M10088 3593 c7 -3 16 -2 19 1 4 3 -2 6 -13 5 -11 0 -14 -3 -6 -6z"/>
<path d="M7105 3500 c3 -5 8 -10 11 -10 2 0 4 5 4 10 0 6 -5 10 -11 10 -5 0
-7 -4 -4 -10z"/>
<path d="M6975 3130 l-20 -9 20 0 c11 0 27 4 35 9 13 9 13 10 0 9 -8 0 -24 -4
-35 -9z"/>
<path d="M6291 2855 c-38 -41 -21 -44 47 -9 5 2 -10 34 -17 34 -3 0 -17 -12
-30 -25z"/>
<path d="M14985 480 c-7 -12 2 -30 16 -30 5 0 9 9 9 20 0 21 -15 27 -25 10z"/>
<path d="M15235 480 c-7 -12 2 -30 16 -30 5 0 9 9 9 20 0 21 -15 27 -25 10z"/>
<path d="M14680 320 c0 -11 5 -20 10 -20 6 0 10 9 10 20 0 11 -4 20 -10 20 -5
0 -10 -9 -10 -20z"/>
<path d="M14890 320 c0 -13 5 -20 13 -17 6 2 12 10 12 17 0 7 -6 15 -12 18 -8
2 -13 -5 -13 -18z"/>
<path d="M10080 9235 c0 -13 24 -15 160 -15 100 0 160 -4 160 -10 0 -6 33 -10
80 -10 47 0 80 4 80 10 0 6 18 10 40 10 36 0 40 -2 40 -25 0 -22 4 -25 40 -25
29 0 40 -4 40 -15 0 -11 11 -15 40 -15 29 0 40 4 40 15 0 11 11 15 40 15 29 0
40 -4 40 -15 0 -11 11 -15 40 -15 22 0 40 -4 40 -10 0 -6 33 -10 80 -10 64 0
80 -3 80 -15 0 -11 11 -15 40 -15 29 0 40 -4 40 -15 0 -11 11 -15 40 -15 22 0
40 -4 40 -10 0 -6 33 -10 80 -10 64 0 80 -3 80 -15 0 -12 16 -15 80 -15 64 0
80 -3 80 -15 0 -11 11 -15 40 -15 36 0 40 -2 40 -25 0 -22 4 -25 40 -25 29 0
40 4 40 15 0 11 11 15 40 15 29 0 40 -4 40 -15 0 -12 16 -15 80 -15 64 0 80
-3 80 -15 0 -11 11 -15 40 -15 36 0 40 -2 40 -25 0 -25 1 -25 80 -25 64 0 80
-3 80 -15 0 -11 11 -15 40 -15 22 0 40 -4 40 -10 0 -5 18 -10 40 -10 29 0 40
-4 40 -15 0 -11 11 -15 40 -15 29 0 40 -4 40 -15 0 -11 12 -15 43 -17 l42 -1
-45 -6 -45 -6 64 -8 c35 -4 90 -7 122 -7 33 0 59 -4 59 -10 0 -5 4 -10 9 -10
12 0 71 -59 71 -71 0 -5 18 -9 40 -9 29 0 40 -4 40 -15 0 -12 20 -15 120 -15
73 0 120 -4 120 -10 0 -5 18 -10 40 -10 29 0 40 -4 40 -15 0 -12 18 -15 98
-17 65 -1 78 -3 40 -5 -65 -4 -80 -23 -18 -23 23 0 40 -5 40 -11 0 -6 7 -9 15
-6 8 4 17 2 20 -2 3 -5 15 -7 28 -4 18 4 16 2 -7 -11 -16 -9 -52 -16 -82 -16
-37 0 -54 -4 -54 -12 0 -9 -22 -13 -73 -14 -67 -1 -146 -21 -120 -31 6 -2 58
2 115 11 129 18 126 18 228 16 47 0 86 -5 88 -10 2 -6 39 -10 83 -10 64 0 79
-3 79 -15 0 -11 11 -15 40 -15 29 0 40 -4 40 -15 0 -11 11 -15 40 -15 22 0 40
-4 40 -10 0 -5 18 -10 40 -10 29 0 40 -4 40 -15 0 -11 11 -15 40 -15 36 0 40
-2 40 -25 0 -22 4 -25 40 -25 38 0 40 -2 40 -30 0 -28 2 -30 40 -30 22 0 40
-4 40 -10 0 -5 18 -10 40 -10 38 0 40 -2 40 -30 0 -28 2 -30 40 -30 22 0 40
-4 40 -10 0 -5 18 -10 40 -10 29 0 40 -4 40 -15 0 -12 16 -15 80 -15 64 0 80
-3 80 -15 0 -11 11 -15 40 -15 36 0 40 -2 40 -25 0 -22 4 -25 40 -25 33 0 40
-3 40 -20 0 -11 7 -20 15 -20 9 0 12 6 9 15 -5 11 1 15 25 15 20 0 31 -5 31
-14 0 -17 33 -27 51 -15 11 7 9 9 -6 10 -11 0 -14 3 -7 6 7 3 24 2 38 -1 22
-6 23 -8 10 -21 -8 -9 -33 -15 -58 -15 -24 0 -61 -5 -83 -10 -22 -5 -119 -16
-215 -24 -209 -19 -414 -39 -685 -66 -110 -11 -261 -24 -335 -30 -74 -5 -151
-12 -170 -15 -19 -3 -84 -10 -145 -15 -60 -5 -281 -25 -490 -45 -209 -19 -389
-35 -399 -35 -11 0 -17 -3 -13 -6 6 -6 52 -3 480 36 120 11 300 27 400 35 100
8 308 26 462 40 154 14 465 40 690 59 498 42 528 44 588 52 46 6 47 5 47 -20
0 -24 3 -26 44 -26 26 0 48 -6 56 -15 7 -8 23 -15 36 -15 15 0 24 -6 24 -15 0
-11 11 -15 40 -15 36 0 40 -2 40 -25 0 -22 4 -25 40 -25 29 0 40 -4 40 -15 0
-11 11 -15 40 -15 22 0 40 -4 40 -10 0 -5 20 -10 44 -10 26 0 48 -6 56 -15 7
-8 23 -15 36 -15 13 0 24 -4 24 -9 0 -15 77 -41 120 -41 29 0 40 -4 40 -15 0
-11 11 -15 40 -15 36 0 40 -2 40 -25 0 -22 4 -25 40 -25 29 0 40 -4 40 -15 0
-11 11 -15 40 -15 29 0 40 -4 40 -15 0 -11 11 -15 40 -15 36 0 40 -2 40 -25 0
-22 4 -25 40 -25 29 0 40 -4 40 -15 0 -11 11 -15 40 -15 22 0 40 -4 40 -10 0
-5 18 -10 40 -10 29 0 40 -4 40 -15 0 -11 11 -15 40 -15 29 0 40 -4 40 -15 0
-11 11 -15 40 -15 l40 0 0 890 0 890 -42 2 -43 1 38 4 c37 4 37 5 37 49 l0 44
-44 0 c-44 0 -45 0 -49 -37 l-4 -38 -1 43 -2 42 55 0 c54 0 55 0 55 30 l0 30
-3160 0 c-2802 0 -3160 -2 -3160 -15z m3728 -37 c7 -7 12 -37 12 -84 0 -91
-11 -104 -86 -104 -87 0 -94 7 -94 100 0 66 3 81 19 92 21 15 129 12 149 -4z
m-763 2 c-3 -5 -11 -10 -16 -10 -6 0 -7 5 -4 10 3 6 11 10 16 10 6 0 7 -4 4
-10z m535 -9 c5 -11 10 -49 10 -84 0 -98 1 -98 -221 -95 l-184 3 -3 92 c-2 77
-6 92 -20 96 -9 3 78 5 195 6 200 1 213 0 223 -18z m480 -81 l0 -100 -79 0
c-103 0 -111 7 -111 104 0 43 5 77 12 84 7 7 44 12 95 12 l83 0 0 -100z m83
93 c-13 -2 -33 -2 -45 0 -13 2 -3 4 22 4 25 0 35 -2 23 -4z m94 1 c-3 -3 -12
-4 -19 -1 -8 3 -5 6 6 6 11 1 17 -2 13 -5z m301 -6 c7 -7 12 -41 12 -82 0
-102 -6 -106 -147 -106 l-113 0 0 100 0 100 118 0 c78 0 122 -4 130 -12z m562
-7 c5 -11 10 -48 10 -82 0 -96 -5 -99 -166 -99 l-133 0 -3 100 -3 100 142 0
c130 0 143 -2 153 -19z m636 -6 c23 -35 16 -142 -11 -161 -14 -11 -59 -14
-177 -14 l-158 0 0 100 0 100 165 0 165 0 16 -25z m442 13 c7 -7 12 -41 12
-82 0 -106 0 -106 -194 -106 -118 1 -166 4 -178 14 -14 10 -18 28 -18 88 0 44
5 79 12 86 8 8 63 12 183 12 120 0 175 -4 183 -12z m-1391 -40 c-3 -7 -5 -2
-5 12 0 14 2 19 5 13 2 -7 2 -19 0 -25z m1587 -5 c-1 -7 -2 -19 -2 -27 -1 -7
-13 -16 -27 -18 -22 -5 -25 -2 -25 26 0 28 3 32 28 31 15 0 27 -5 26 -12z
m-3261 -17 c3 3 4 -6 3 -19 -1 -26 -6 -25 -38 2 -25 22 -22 32 6 21 13 -5 26
-6 29 -4z m-106 -28 c-3 -8 -6 -5 -6 6 -1 11 2 17 5 13 3 -3 4 -12 1 -19z
m1100 0 c-3 -8 -6 -5 -6 6 -1 11 2 17 5 13 3 -3 4 -12 1 -19z m2201 -31 c2
-12 -3 -17 -17 -17 -12 0 -21 6 -21 13 0 31 32 34 38 4z m-3274 -3 c3 -8 2
-12 -4 -9 -6 3 -10 10 -10 16 0 14 7 11 14 -7z m1611 -34 c-3 -5 -12 -10 -18
-10 -7 0 -6 4 3 10 19 12 23 12 15 0z m444 -1106 c10 -9 -45 -3 -59 6 -11 7
-5 8 20 4 19 -4 37 -8 39 -10z m-116 -11 c-7 -2 -21 -2 -30 0 -10 3 -4 5 12 5
17 0 24 -2 18 -5z"/>
<path d="M13680 9158 c-11 -12 -20 -25 -20 -30 0 -13 18 -9 22 4 5 15 32 -9
34 -29 3 -34 4 -35 19 -23 14 11 14 15 -2 32 -14 15 -14 21 -4 27 7 5 12 11
12 15 -1 3 2 6 7 6 4 0 7 -8 8 -18 1 -9 5 -25 9 -34 12 -28 -2 -48 -33 -48
-32 0 -53 16 -45 36 4 10 0 12 -11 8 -22 -8 -3 -42 30 -55 28 -10 37 -7 72 24
27 25 28 47 1 81 -26 33 -70 35 -99 4z"/>
<path d="M13520 9161 c0 -12 0 -24 0 -28 0 -4 10 -7 23 -7 17 0 22 5 22 24 0
18 -6 26 -22 28 -18 3 -23 -2 -23 -17z"/>
<path d="M13315 9160 c-3 -5 0 -18 6 -28 13 -21 6 -52 -11 -52 -5 0 -10 8 -10
18 0 11 -8 18 -20 19 -25 2 -26 -22 -2 -36 9 -6 12 -11 6 -11 -22 0 -36 29
-29 60 7 31 -8 43 -19 14 -19 -48 8 -94 56 -94 34 0 58 30 58 72 0 35 -22 59
-35 38z"/>
<path d="M13470 9106 c0 -18 -27 -29 -34 -13 -2 7 -5 -3 -5 -20 -1 -29 2 -33
25 -33 19 0 25 4 20 15 -4 10 1 15 14 15 26 0 26 26 0 40 -16 8 -20 8 -20 -4z"/>
<path d="M14000 9136 c0 -22 -15 -27 -46 -16 -19 8 -30 8 -38 0 -7 -7 -4 -10
10 -10 11 0 29 -7 40 -15 24 -18 35 -19 28 -1 -3 9 3 17 15 21 24 7 29 35 6
35 -8 0 -15 -6 -15 -14z"/>
<path d="M13952 9061 c4 -13 18 -16 19 -4 0 4 -5 9 -11 12 -7 2 -11 -2 -8 -8z"/>
<path d="M14375 9171 c-3 -6 -1 -11 4 -11 6 0 11 -17 11 -37 0 -26 3 -34 11
-26 13 13 8 75 -8 80 -6 2 -14 -1 -18 -6z"/>
<path d="M14430 9136 c0 -19 6 -36 13 -39 24 -8 37 6 37 39 0 30 -3 34 -25 34
-22 0 -25 -4 -25 -34z m27 -8 c-3 -7 -5 -2 -5 12 0 14 2 19 5 13 2 -7 2 -19 0
-25z"/>
<path d="M14416 9061 c-4 -5 -2 -12 3 -15 5 -4 12 -2 15 3 4 5 2 12 -3 15 -5
4 -12 2 -15 -3z"/>
<path d="M14897 9143 c9 -58 23 -64 23 -10 0 34 -4 47 -14 47 -11 0 -13 -9 -9
-37z"/>
<path d="M14951 9161 c-15 -27 -14 -46 5 -61 12 -11 18 -10 31 3 13 13 15 23
7 44 -12 34 -30 40 -43 14z m29 -27 c0 -8 -4 -14 -10 -14 -5 0 -10 9 -10 21 0
11 5 17 10 14 6 -3 10 -13 10 -21z"/>
<path d="M15010 9154 c0 -9 5 -14 12 -12 18 6 21 28 4 28 -9 0 -16 -7 -16 -16z"/>
<path d="M14952 9061 c4 -13 18 -16 19 -4 0 4 -5 9 -11 12 -7 2 -11 -2 -8 -8z"/>
<path d="M15570 9165 c-10 -12 -10 -15 4 -15 20 0 20 -7 1 -27 -8 -8 -13 -19
-10 -24 8 -12 42 -11 50 1 5 8 11 7 21 -1 11 -9 17 -9 29 1 20 17 19 37 -2 49
-10 6 -12 11 -5 11 6 0 12 5 12 11 0 25 -35 2 -40 -26 -3 -18 -12 -31 -23 -33
-16 -3 -17 -1 -6 16 12 20 7 52 -9 52 -5 0 -15 -7 -22 -15z"/>
<path d="M15470 9136 c0 -19 6 -36 13 -39 24 -8 37 6 37 39 0 30 -3 34 -25 34
-22 0 -25 -4 -25 -34z m27 -8 c-3 -7 -5 -2 -5 12 0 14 2 19 5 13 2 -7 2 -19 0
-25z"/>
<path d="M15530 9100 c0 -5 5 -10 10 -10 6 0 10 5 10 10 0 6 -4 10 -10 10 -5
0 -10 -4 -10 -10z"/>
<path d="M15565 9061 c-6 -11 9 -23 19 -14 9 9 7 23 -3 23 -6 0 -12 -4 -16 -9z"/>
<path d="M16080 9151 c-14 -27 -13 -41 5 -41 8 0 15 -4 15 -10 0 -5 5 -10 10
-10 6 0 10 18 10 40 0 44 -21 55 -40 21z"/>
<path d="M15892 9140 c11 -17 10 -22 -2 -30 -12 -8 -11 -11 9 -16 l23 -7 -23
-13 c-22 -13 -19 -14 36 -11 66 2 77 15 56 66 -10 23 -18 27 -61 29 -48 2 -50
1 -38 -18z"/>
<path d="M16086 9061 c-3 -5 1 -11 9 -15 15 -6 29 7 18 18 -9 9 -21 8 -27 -3z"/>
<path d="M5128 8683 c6 -2 18 -2 25 0 6 3 1 5 -13 5 -14 0 -19 -2 -12 -5z"/>
<path d="M4826 8641 c17 -4 36 -11 42 -15 7 -4 12 -3 12 2 0 11 -35 22 -65 21
-12 -1 -8 -4 11 -8z"/>
<path d="M12985 8390 c-16 -4 -48 -8 -69 -9 -22 0 -37 -4 -33 -7 9 -9 157 7
157 17 0 10 -12 10 -55 -1z"/>
<path d="M12798 8363 c12 -2 30 -2 40 0 9 3 -1 5 -23 4 -22 0 -30 -2 -17 -4z"/>
<path d="M12385 8310 l-20 -9 20 0 c11 0 27 4 35 9 13 9 13 10 0 9 -8 0 -24
-4 -35 -9z"/>
<path d="M12208 8283 c6 -2 18 -2 25 0 6 3 1 5 -13 5 -14 0 -19 -2 -12 -5z"/>
<path d="M12203 7653 c15 -2 37 -2 50 0 12 2 0 4 -28 4 -27 0 -38 -2 -22 -4z"/>
<path d="M11960 7639 c-52 -5 -106 -10 -120 -13 -40 -7 199 6 265 14 l60 7
-55 0 c-30 0 -98 -3 -150 -8z"/>
<path d="M11748 7613 c12 -2 32 -2 45 0 12 2 2 4 -23 4 -25 0 -35 -2 -22 -4z"/>
<path d="M11633 7603 c15 -2 37 -2 50 0 12 2 0 4 -28 4 -27 0 -38 -2 -22 -4z"/>
<path d="M11538 7593 c12 -2 32 -2 45 0 12 2 2 4 -23 4 -25 0 -35 -2 -22 -4z"/>
<path d="M11428 7583 c12 -2 32 -2 45 0 12 2 2 4 -23 4 -25 0 -35 -2 -22 -4z"/>
<path d="M11220 7570 l-65 -7 55 0 c30 0 84 3 120 7 l65 7 -55 0 c-30 0 -84
-3 -120 -7z"/>
<path d="M11000 7550 c-41 -6 -42 -7 -10 -8 19 0 58 3 85 8 47 7 48 7 10 7
-22 0 -60 -3 -85 -7z"/>
<path d="M10868 7533 c12 -2 30 -2 40 0 9 3 -1 5 -23 4 -22 0 -30 -2 -17 -4z"/>
<path d="M10768 7523 c12 -2 32 -2 45 0 12 2 2 4 -23 4 -25 0 -35 -2 -22 -4z"/>
<path d="M1538 7513 c12 -2 30 -2 40 0 9 3 -1 5 -23 4 -22 0 -30 -2 -17 -4z"/>
<path d="M10653 7513 c9 -2 25 -2 35 0 9 3 1 5 -18 5 -19 0 -27 -2 -17 -5z"/>
<path d="M1613 7503 c9 -2 23 -2 30 0 6 3 -1 5 -18 5 -16 0 -22 -2 -12 -5z"/>
<path d="M10543 7503 c15 -2 37 -2 50 0 12 2 0 4 -28 4 -27 0 -38 -2 -22 -4z"/>
<path d="M1528 7493 c6 -2 18 -2 25 0 6 3 1 5 -13 5 -14 0 -19 -2 -12 -5z"/>
<path d="M10418 7493 c12 -2 32 -2 45 0 12 2 2 4 -23 4 -25 0 -35 -2 -22 -4z"/>
<path d="M10308 7483 c12 -2 32 -2 45 0 12 2 2 4 -23 4 -25 0 -35 -2 -22 -4z"/>
<path d="M10208 7473 c12 -2 30 -2 40 0 9 3 -1 5 -23 4 -22 0 -30 -2 -17 -4z"/>
<path d="M10098 7463 c12 -2 32 -2 45 0 12 2 2 4 -23 4 -25 0 -35 -2 -22 -4z"/>
<path d="M9988 7453 c12 -2 32 -2 45 0 12 2 2 4 -23 4 -25 0 -35 -2 -22 -4z"/>
<path d="M9863 7443 c15 -2 39 -2 55 0 15 2 2 4 -28 4 -30 0 -43 -2 -27 -4z"/>
<path d="M9748 7433 c12 -2 30 -2 40 0 9 3 -1 5 -23 4 -22 0 -30 -2 -17 -4z"/>
<path d="M9653 7423 c9 -2 23 -2 30 0 6 3 -1 5 -18 5 -16 0 -22 -2 -12 -5z"/>
<path d="M9538 7413 c12 -2 32 -2 45 0 12 2 2 4 -23 4 -25 0 -35 -2 -22 -4z"/>
<path d="M9443 7403 c9 -2 25 -2 35 0 9 3 1 5 -18 5 -19 0 -27 -2 -17 -5z"/>
<path d="M9240 7390 c-25 -4 -4 -5 50 -2 52 2 97 6 99 8 7 6 -99 2 -149 -6z"/>
<path d="M9088 7373 c6 -2 18 -2 25 0 6 3 1 5 -13 5 -14 0 -19 -2 -12 -5z"/>
<path d="M8978 7363 c12 -2 32 -2 45 0 12 2 2 4 -23 4 -25 0 -35 -2 -22 -4z"/>
<path d="M8883 7353 c9 -2 25 -2 35 0 9 3 1 5 -18 5 -19 0 -27 -2 -17 -5z"/>
<path d="M8783 7343 c9 -2 25 -2 35 0 9 3 1 5 -18 5 -19 0 -27 -2 -17 -5z"/>
<path d="M8668 7333 c12 -2 30 -2 40 0 9 3 -1 5 -23 4 -22 0 -30 -2 -17 -4z"/>
<path d="M8573 7323 c9 -2 23 -2 30 0 6 3 -1 5 -18 5 -16 0 -22 -2 -12 -5z"/>
<path d="M8413 7313 c9 -2 23 -2 30 0 6 3 -1 5 -18 5 -16 0 -22 -2 -12 -5z"/>
<path d="M8318 7303 c12 -2 30 -2 40 0 9 3 -1 5 -23 4 -22 0 -30 -2 -17 -4z"/>
<path d="M8213 7293 c9 -2 25 -2 35 0 9 3 1 5 -18 5 -19 0 -27 -2 -17 -5z"/>
<path d="M8108 7283 c12 -2 30 -2 40 0 9 3 -1 5 -23 4 -22 0 -30 -2 -17 -4z"/>
<path d="M8018 7273 c12 -2 30 -2 40 0 9 3 -1 5 -23 4 -22 0 -30 -2 -17 -4z"/>
<path d="M7908 7263 c12 -2 32 -2 45 0 12 2 2 4 -23 4 -25 0 -35 -2 -22 -4z"/>
<path d="M7768 7253 c12 -2 30 -2 40 0 9 3 -1 5 -23 4 -22 0 -30 -2 -17 -4z"/>
<path d="M7658 7243 c12 -2 30 -2 40 0 9 3 -1 5 -23 4 -22 0 -30 -2 -17 -4z"/>
<path d="M7538 7233 c12 -2 32 -2 45 0 12 2 2 4 -23 4 -25 0 -35 -2 -22 -4z"/>
<path d="M7438 7223 c12 -2 32 -2 45 0 12 2 2 4 -23 4 -25 0 -35 -2 -22 -4z"/>
<path d="M7343 7213 c9 -2 25 -2 35 0 9 3 1 5 -18 5 -19 0 -27 -2 -17 -5z"/>
<path d="M7223 7203 c15 -2 37 -2 50 0 12 2 0 4 -28 4 -27 0 -38 -2 -22 -4z"/>
<path d="M7083 7193 c9 -2 23 -2 30 0 6 3 -1 5 -18 5 -16 0 -22 -2 -12 -5z"/>
<path d="M6978 7183 c12 -2 32 -2 45 0 12 2 2 4 -23 4 -25 0 -35 -2 -22 -4z"/>
<path d="M6888 7173 c6 -2 18 -2 25 0 6 3 1 5 -13 5 -14 0 -19 -2 -12 -5z"/>
<path d="M7290 6995 c0 -8 5 -15 10 -15 6 0 10 7 10 15 0 8 -4 15 -10 15 -5 0
-10 -7 -10 -15z"/>
<path d="M8770 6456 c0 -9 5 -16 10 -16 6 0 10 4 10 9 0 6 -4 13 -10 16 -5 3
-10 -1 -10 -9z"/>
<path d="M12818 6393 c17 -2 47 -2 65 0 17 2 3 4 -33 4 -36 0 -50 -2 -32 -4z"/>
<path d="M11598 6383 c45 -2 119 -2 165 0 45 1 8 3 -83 3 -91 0 -128 -2 -82
-3z"/>
<path d="M14840 162 c0 -16 -8 -18 -74 -15 -77 3 -93 -6 -80 -42 8 -21 44 -19
44 3 1 16 2 16 15 -2 15 -20 35 -14 36 12 0 12 3 11 9 -5 7 -17 18 -23 40 -23
29 0 30 2 30 45 0 25 -4 45 -10 45 -5 0 -10 -8 -10 -18z m0 -52 c0 -5 -5 -10
-11 -10 -5 0 -7 5 -4 10 3 6 8 10 11 10 2 0 4 -4 4 -10z"/>
<path d="M15070 169 c0 -5 5 -7 10 -4 6 3 10 8 10 11 0 2 -4 4 -10 4 -5 0 -10
-5 -10 -11z"/>
<path d="M15400 154 c-13 -15 -26 -21 -28 -15 -2 6 -21 11 -42 11 -32 0 -39
-4 -43 -22 l-4 -23 -2 23 c-1 24 -16 30 -24 10 -4 -10 -6 -10 -6 0 -1 15 -33
16 -48 1 -8 -8 -16 -8 -30 0 -16 11 -16 11 5 6 13 -4 22 -2 22 5 0 17 -29 24
-53 11 -12 -6 -33 -12 -47 -13 -14 -2 -29 -7 -33 -13 -6 -6 -10 -6 -14 3 -2 6
-16 12 -29 12 -19 0 -24 -5 -24 -24 0 -16 -5 -23 -15 -22 -21 3 -31 16 -12 16
23 0 22 20 0 21 -13 0 -11 3 7 11 21 9 22 12 7 15 -33 8 -47 -5 -47 -42 0 -31
3 -35 26 -35 15 0 33 -8 40 -17 13 -17 13 -17 14 0 0 9 7 17 15 17 8 0 15 5
15 11 0 6 5 7 13 2 20 -12 187 -13 187 0 0 8 4 7 12 -1 7 -7 27 -12 45 -12 27
0 33 4 34 23 0 21 1 21 10 -3 8 -18 12 -21 18 -11 6 9 11 10 15 2 4 -6 16 -11
27 -11 16 0 19 7 19 45 0 25 -1 45 -2 45 -2 0 -14 -12 -28 -26z m-222 -40 c2
-1 -13 -2 -32 -2 -20 0 -36 4 -36 8 0 14 34 17 50 6 8 -6 16 -11 18 -12z m139
4 c-3 -8 -6 -5 -6 6 -1 11 2 17 5 13 3 -3 4 -12 1 -19z m-277 2 c0 -5 -4 -10
-10 -10 -5 0 -10 5 -10 10 0 6 5 10 10 10 6 0 10 -4 10 -10z m200 0 c0 -5 -4
-10 -10 -10 -5 0 -10 5 -10 10 0 6 5 10 10 10 6 0 10 -4 10 -10z m175 0 c3 -5
1 -10 -4 -10 -6 0 -11 5 -11 10 0 6 2 10 4 10 3 0 8 -4 11 -10z"/>
<path d="M15819 159 c-11 -21 -4 -89 9 -89 4 0 7 25 8 55 0 30 -1 55 -3 55 -1
0 -7 -9 -14 -21z"/>
<path d="M16050 170 c0 -5 5 -10 10 -10 6 0 10 5 10 10 0 6 -4 10 -10 10 -5 0
-10 -4 -10 -10z"/>
<path d="M16315 121 c-1 -48 2 -58 12 -49 17 13 17 69 1 91 -11 15 -13 8 -13
-42z"/>
<path d="M14630 130 c0 -37 2 -40 28 -40 24 1 25 2 10 14 -10 7 -18 25 -18 40
0 14 -4 26 -10 26 -5 0 -10 -18 -10 -40z"/>
<path d="M15444 145 c-8 -34 1 -55 26 -55 25 0 34 21 26 55 -9 34 -43 34 -52
0z m36 -21 c0 -8 -4 -14 -10 -14 -5 0 -10 9 -10 21 0 11 5 17 10 14 6 -3 10
-13 10 -21z"/>
<path d="M15514 154 c3 -9 6 -27 6 -40 0 -13 5 -24 10 -24 6 0 10 18 10 40 0
30 -4 40 -16 40 -11 0 -14 -5 -10 -16z"/>
<path d="M15615 149 c4 -12 8 -29 9 -37 2 -9 8 -18 14 -20 8 -2 12 11 12 37 0
35 -3 41 -21 41 -16 0 -19 -4 -14 -21z"/>
<path d="M15670 160 c0 -5 5 -10 10 -10 6 0 10 -13 10 -30 0 -16 5 -30 10 -30
6 0 10 18 10 40 0 33 -3 40 -20 40 -11 0 -20 -4 -20 -10z"/>
<path d="M15735 141 c-9 -19 -11 -32 -5 -36 6 -3 10 -3 10 1 0 3 6 1 14 -5 18
-15 25 -4 24 37 -1 41 -22 42 -43 3z"/>
<path d="M15850 131 c0 -23 5 -41 10 -41 6 0 10 6 10 14 0 7 9 16 21 19 31 8
21 41 -14 45 -25 3 -27 1 -27 -37z m40 15 c0 -3 -4 -8 -10 -11 -5 -3 -10 -1
-10 4 0 6 5 11 10 11 6 0 10 -2 10 -4z"/>
<path d="M16128 160 c-2 -8 -38 -12 -106 -12 -90 0 -102 -3 -107 -19 -9 -28 2
-39 41 -39 28 0 34 4 34 21 0 11 4 18 10 14 5 -3 7 -12 3 -21 -5 -13 6 -15 74
-13 l80 3 -1 35 c-1 33 -20 54 -28 31z m-43 -39 c3 -5 2 -12 -3 -15 -5 -3 -9
1 -9 9 0 17 3 19 12 6z"/>
<path d="M16280 132 c0 -29 4 -42 14 -42 17 0 15 55 -3 73 -8 8 -11 1 -11 -31z"/>
<path d="M14870 140 c0 -5 5 -10 10 -10 6 0 10 5 10 10 0 6 -4 10 -10 10 -5 0
-10 -4 -10 -10z"/>
<path d="M16166 135 c-10 -28 5 -45 39 -45 27 0 34 5 38 23 l4 22 2 -22 c0
-13 6 -23 12 -23 6 0 9 12 7 28 -3 25 -7 27 -50 29 -33 2 -48 -2 -52 -12z"/>
<path d="M15564 89 c-3 -5 7 -9 22 -9 15 0 24 3 20 7 -11 11 -35 12 -42 2z"/>
</g>
</svg>
